<svg xmlns="http://www.w3.org/2000/svg" width="24.278" height="24.753" viewBox="0 0 24.278 24.753">
  <g id="Accountsettings" transform="translate(0.614 0.5)">
    <path id="Path_104" data-name="Path 104" d="M269.439,13.626a2.726,2.726,0,1,0-2.784-2.725A2.763,2.763,0,0,0,269.439,13.626Zm-4.707-8.72a7.9,7.9,0,0,1,3.34-1.771L269.186,0h1.253l.985,2.586A13.743,13.743,0,0,1,275.5,4.41l3.429-.773,1.42,2.795-2.32,2.7a7.691,7.691,0,0,1,.205,1.771c0,.545-.205,1.226-.205,1.771l2.32,2.773-1.42,2.74-3.429-.608a10.779,10.779,0,0,1-4.076,1.706l-.985,2.518h-1.253l-1.113-3.134a9.785,9.785,0,0,1-3.34-1.771l-3.34.681L260,15.124l2.227-2.453a7.61,7.61,0,0,1-.139-1.771c0-.545.139-1.226.139-1.771L260,6.677l1.392-2.453Z" transform="translate(-257.105 0.977)" fill="#c9e7f9" fill-rule="evenodd"/>
    <path id="Path_11826" data-name="Path 11826" d="M271.374,14.846a2.97,2.97,0,1,0-3.033-2.969A3.01,3.01,0,0,0,271.374,14.846Zm-6.218-9.5a8.61,8.61,0,0,1,3.64-1.93L270.009,0h3.033l1.213,3.415a10.662,10.662,0,0,1,3.64,1.93l3.64-.742,1.517,2.672-2.426,2.672a8.292,8.292,0,0,1,.152,1.93c0,.594-.152,1.336-.152,1.93l2.426,2.672-1.517,2.672-3.64-.742a8.61,8.61,0,0,1-3.64,1.93l-1.213,3.415h-3.033L268.8,20.339a10.662,10.662,0,0,1-3.64-1.93l-3.64.742L260,16.479l2.426-2.672a8.29,8.29,0,0,1-.152-1.93c0-.594.152-1.336.152-1.93L260,7.274,261.517,4.6Z" transform="translate(-260)" fill="none" stroke="#515c6f" stroke-width="1" fill-rule="evenodd"/>
  </g>
</svg>
