<svg xmlns="http://www.w3.org/2000/svg" width="22.573" height="29.416" viewBox="0 0 22.573 29.416">
  <g id="Address_Manage" data-name="Address Manage" transform="translate(-39.459 -821.238)">
    <path id="Subtraction_33" data-name="Subtraction 33" d="M2.976,17.412v0C1,14.363,0,11.623,0,9.263A9.017,9.017,0,0,1,8.722,0a9.013,9.013,0,0,1,8.716,9.263,9.963,9.963,0,0,1-.226,2.03L2.976,17.41ZM9.16,5.773,4.984,10.193l-.3,2.275,2.1-.373,4.155-4.431Zm1.7-1.619a.443.443,0,0,0-.334.146l-.869.93,1.788,1.9.875-.925a.53.53,0,0,0,0-.716L11.2,4.3A.451.451,0,0,0,10.861,4.154Z" transform="translate(42.288 821.738)" fill="#c9e7f9"/>
    <path id="ic_near_me_24px" d="M16.258,3,3,8.546v.722L8.038,11.22l1.945,5.038H10.7Z" transform="translate(44.842 831.702)" fill="#c9e7f9"/>
    <g id="Address_Manage-2" data-name="Address Manage" transform="translate(39.959 821.738)">
      <path id="Subtraction_33-2" data-name="Subtraction 33" d="M3.373,18.577v0C1.136,15.324,0,12.4,0,9.883a9.884,9.884,0,0,1,19.768,0,10.031,10.031,0,0,1-.256,2.166L3.373,18.575ZM10.383,6.16,5.649,10.875,5.309,13.3l2.377-.4L12.4,8.177Zm1.929-1.727a.517.517,0,0,0-.379.156l-.985.992,2.027,2.032.992-.987a.541.541,0,0,0,0-.764L12.693,4.588A.526.526,0,0,0,12.312,4.432Z" transform="translate(0)" fill="none" stroke="#515c6f" stroke-width="1"/>
      <path id="ic_near_me_24px-2" data-name="ic_near_me_24px" d="M18.453,3,3,9.464v.841l5.872,2.275,2.266,5.872h.841Z" transform="translate(2.688 9.963)" fill="none" stroke="#515c6f" stroke-width="1"/>
    </g>
  </g>
</svg>
