<svg xmlns="http://www.w3.org/2000/svg" width="22.99" height="22.99" viewBox="0 0 22.99 22.99">
  <g id="Appointment" transform="translate(-2.101 -2.1)">
    <rect id="Rectangle_1909" data-name="Rectangle 1909" width="18" height="17" rx="1.2" transform="translate(5.088 5.602)" fill="rgba(0,144,226,0.21)"/>
    <path id="Subtraction_35" data-name="Subtraction 35" d="M20.624,22.988H2.368A2.37,2.37,0,0,1,0,20.621V4.025A2.37,2.37,0,0,1,2.368,1.658H5.81V.706a.707.707,0,0,1,1.415,0v.952h8.543V.706a.707.707,0,1,1,1.415,0v.952h3.442a2.37,2.37,0,0,1,2.367,2.367v16.6A2.37,2.37,0,0,1,20.624,22.988ZM1.416,8.051V20.621a.953.953,0,0,0,.952.952H20.624a.953.953,0,0,0,.952-.952V8.051Zm.952-4.979a.953.953,0,0,0-.952.952V6.637h20.16V4.025a.953.953,0,0,0-.952-.952Z" transform="translate(2.1 2.102)" fill="#505b6e"/>
    <path id="Path_11821" data-name="Path 11821" d="M18.272,15.188,13.237,19.5,11.361,17.63a.8.8,0,1,0-1.13,1.13l2.4,2.4a.8.8,0,0,0,1.085.042l5.6-4.8a.8.8,0,1,0-1.039-1.213Z" transform="translate(-1.2 -2.073)" fill="#505b6e"/>
  </g>
</svg>
