<svg xmlns="http://www.w3.org/2000/svg" width="6.41" height="11.977" viewBox="0 0 6.41 11.977">
  <path id="arrow_menu_right" d="M9828.426,12.979a.429.429,0,0,1-.424-.432.442.442,0,0,1,.115-.293l5.271-5.264-5.215-5.215-.027-.029a.4.4,0,0,1-.145-.314.428.428,0,0,1,.424-.43.469.469,0,0,1,.3.113l.086.086,5.105,5.107-.006.008.371.357a.433.433,0,0,1,.129.316.422.422,0,0,1-.129.307l-.371.359.006.006-5.178,5.18-.014.014A.431.431,0,0,1,9828.426,12.979Z" transform="translate(-9828.002 -1.002)" fill="#fff"/>
</svg>
