<svg xmlns="http://www.w3.org/2000/svg" xmlns:xlink="http://www.w3.org/1999/xlink" width="289" height="120" viewBox="0 0 289 120">
  <defs>
    <clipPath id="clip-path">
      <rect id="Rectangle_1881" data-name="Rectangle 1881" width="289" height="120" rx="10" transform="translate(-17571 -15858)" fill="#0888d1"/>
    </clipPath>
  </defs>
  <g id="Banner_02" data-name="Banner 02" transform="translate(-15 -107)">
    <g id="Mask_Group_1" data-name="Mask Group 1" transform="translate(17586 15965)" clip-path="url(#clip-path)">
      <g id="Group_3724" data-name="Group 3724" transform="translate(-17526.551 -15923.904)">
        <rect id="Rectangle_1880" data-name="Rectangle 1880" width="346.374" height="165.904" transform="translate(-46 57)" fill="#0579ce"/>
        <g id="Group_3613" data-name="Group 3613" transform="translate(-63.333 44.419)" opacity="0.584">
          <circle id="Ellipse_341" data-name="Ellipse 341" cx="27.328" cy="27.328" r="27.328" transform="translate(3.102 41.749) rotate(-45)" fill="#108ed6"/>
          <path id="Path_10191" data-name="Path 10191" d="M587.429,331.525c0-1.622-3.348-1.55-3.348-1.55s-3.349-.073-3.348,1.55c0,1.164,1.751,1.52,2.3,3.433a25.006,25.006,0,0,1-.111,8.352c-.375,1.1-1.435,1.059-1.435,1.537s2.118.342,2.6.342,2.6.137,2.6-.342-1.059-.435-1.435-1.537a24.987,24.987,0,0,1-.111-8.352C585.678,333.045,587.427,332.688,587.429,331.525Z" transform="translate(-542.305 -329.974)" fill="#7da9ce"/>
          <path id="Path_10192" data-name="Path 10192" d="M587.429,700.4c0,1.623-3.348,1.55-3.348,1.55s-3.349.073-3.348-1.55c0-1.163,1.751-1.52,2.3-3.433a25.005,25.005,0,0,0-.111-8.352c-.375-1.1-1.435-1.059-1.435-1.537s2.118-.342,2.6-.342,2.6-.137,2.6.342-1.059.435-1.435,1.537a24.986,24.986,0,0,0-.111,8.352C585.678,698.88,587.427,699.237,587.429,700.4Z" transform="translate(-542.305 -618.399)" fill="#7da9ce"/>
          <path id="Path_10201" data-name="Path 10201" d="M381.624,537.33c-1.622,0-1.55-3.348-1.55-3.348s-.073-3.349,1.55-3.348c1.164,0,1.52,1.751,3.433,2.3a24.982,24.982,0,0,0,8.352-.111c1.1-.375,1.059-1.435,1.537-1.435s.342,2.118.342,2.6.137,2.6-.342,2.6-.435-1.06-1.537-1.435a24.99,24.99,0,0,0-8.352-.111C383.144,535.579,382.787,537.329,381.624,537.33Z" transform="translate(-380.073 -492.207)" fill="#7da9ce"/>
          <path id="Path_10202" data-name="Path 10202" d="M750.5,537.33c1.623,0,1.55-3.348,1.55-3.348s.073-3.349-1.55-3.348c-1.164,0-1.52,1.751-3.433,2.3a24.981,24.981,0,0,1-8.352-.111c-1.1-.375-1.059-1.435-1.537-1.435s-.342,2.118-.342,2.6-.136,2.6.342,2.6.436-1.06,1.537-1.435a24.988,24.988,0,0,1,8.352-.111C748.979,535.579,749.335,537.329,750.5,537.33Z" transform="translate(-668.497 -492.207)" fill="#7da9ce"/>
          <path id="Path_10203" data-name="Path 10203" d="M701.389,390.658c1.148-1.146-1.271-3.463-1.271-3.463s-2.317-2.42-3.463-1.271c-.822.823.163,2.313-.8,4.052a24.979,24.979,0,0,1-5.984,5.827c-1.044.514-1.763-.266-2.1.072s1.256,1.739,1.594,2.077,1.739,1.932,2.077,1.594-.442-1.057.073-2.1a24.987,24.987,0,0,1,5.827-5.984C699.076,390.5,700.566,391.48,701.389,390.658Z" transform="translate(-628.803 -374.959)" fill="#7da9ce"/>
          <path id="Path_10204" data-name="Path 10204" d="M440.756,651.291c-1.146,1.149-3.463-1.271-3.463-1.271s-2.42-2.317-1.271-3.463c.824-.822,2.313.163,4.052-.8a24.982,24.982,0,0,0,5.827-5.984c.514-1.044-.266-1.763.073-2.1s1.739,1.256,2.077,1.594,1.933,1.739,1.594,2.077-1.057-.441-2.1.072a24.99,24.99,0,0,0-5.984,5.827C440.593,648.978,441.578,650.467,440.756,651.291Z" transform="translate(-425.057 -578.704)" fill="#7da9ce"/>
          <path id="Path_10205" data-name="Path 10205" d="M436.022,390.658c-1.149-1.146,1.271-3.463,1.271-3.463s2.317-2.42,3.463-1.271c.822.823-.163,2.313.8,4.052a24.981,24.981,0,0,0,5.984,5.827c1.044.514,1.763-.266,2.1.072s-1.256,1.739-1.594,2.077-1.739,1.932-2.077,1.594.441-1.057-.073-2.1a24.98,24.98,0,0,0-5.827-5.984C438.335,390.5,436.846,391.48,436.022,390.658Z" transform="translate(-425.057 -374.959)" fill="#7da9ce"/>
          <path id="Path_10206" data-name="Path 10206" d="M696.655,651.291c1.146,1.149,3.463-1.271,3.463-1.271s2.42-2.317,1.271-3.463c-.824-.822-2.313.163-4.052-.8a24.989,24.989,0,0,1-5.827-5.984c-.514-1.044.265-1.763-.073-2.1s-1.739,1.256-2.077,1.594-1.932,1.739-1.594,2.077,1.057-.441,2.1.072a24.992,24.992,0,0,1,5.984,5.827C696.818,648.978,695.833,650.467,696.655,651.291Z" transform="translate(-628.803 -578.704)" fill="#7da9ce"/>
          <g id="Group_3737" data-name="Group 3737">
            <path id="Path_10193" data-name="Path 10193" d="M637.426,393.446c.473-1.152-1.928-2.073-1.928-2.073s-2.358-1.024-2.828.129c-.337.827.8,1.588.635,3.106a19.188,19.188,0,0,1-2.5,5.9c-.587.674-1.327.336-1.466.676s1.406.858,1.745,1,1.8.851,1.944.511-.626-.617-.573-1.509a19.181,19.181,0,0,1,2.346-5.966C635.741,394.018,637.087,394.273,637.426,393.446Z" transform="translate(-581.592 -379.275)" fill="#6fa5e6"/>
            <path id="Path_10194" data-name="Path 10194" d="M529.3,654.788c-.47,1.154-2.828.129-2.828.129s-2.4-.921-1.928-2.073c.339-.826,1.685-.571,2.629-1.772a19.177,19.177,0,0,0,2.346-5.966c.053-.891-.712-1.169-.573-1.509s1.6.373,1.944.511,1.884.657,1.745,1-.879,0-1.465.676a19.18,19.18,0,0,0-2.5,5.9C528.5,653.2,529.641,653.961,529.3,654.788Z" transform="translate(-496.83 -583.463)" fill="#6fa5e6"/>
            <path id="Path_10195" data-name="Path 10195" d="M524.548,393.446c-.473-1.152,1.928-2.073,1.928-2.073s2.358-1.024,2.828.129c.337.827-.8,1.588-.635,3.106a19.182,19.182,0,0,0,2.5,5.9c.586.674,1.327.336,1.465.676s-1.405.858-1.745,1-1.8.851-1.944.511.626-.617.573-1.509a19.18,19.18,0,0,0-2.346-5.966C526.233,394.018,524.887,394.273,524.548,393.446Z" transform="translate(-496.83 -379.275)" fill="#6fa5e6"/>
            <path id="Path_10196" data-name="Path 10196" d="M632.669,654.788c.47,1.154,2.828.129,2.828.129s2.4-.921,1.928-2.073c-.339-.826-1.685-.571-2.629-1.772a19.178,19.178,0,0,1-2.346-5.966c-.053-.891.712-1.169.573-1.509s-1.6.373-1.944.511-1.884.657-1.745,1,.879,0,1.466.676a19.186,19.186,0,0,1,2.5,5.9C633.472,653.2,632.333,653.961,632.669,654.788Z" transform="translate(-581.592 -583.463)" fill="#6fa5e6"/>
            <path id="Path_10197" data-name="Path 10197" d="M701.06,468.764c1.116-.552-.075-2.83-.075-2.83s-1.091-2.328-2.206-1.774c-.8.4-.449,1.722-1.578,2.75a19.182,19.182,0,0,1-5.782,2.77c-.886.117-1.217-.626-1.546-.463s.487,1.573.65,1.9.791,1.832,1.119,1.669-.062-.877.568-1.51a19.177,19.177,0,0,1,5.706-2.922C699.418,468.078,700.26,469.16,701.06,468.764Z" transform="translate(-630.48 -438.393)" fill="#6fa5e6"/>
            <path id="Path_10198" data-name="Path 10198" d="M448.08,595.238c-1.115.554-2.206-1.774-2.206-1.774s-1.192-2.279-.075-2.83c.8-.4,1.642.686,3.144.41a19.176,19.176,0,0,0,5.705-2.922c.63-.634.24-1.348.568-1.51s.957,1.34,1.12,1.669.979,1.739.65,1.9-.66-.58-1.546-.463a19.167,19.167,0,0,0-5.782,2.77C448.528,593.516,448.879,594.841,448.08,595.238Z" transform="translate(-432.824 -537.453)" fill="#6fa5e6"/>
            <path id="Path_10199" data-name="Path 10199" d="M445.8,468.764c-1.116-.552.075-2.83.075-2.83s1.091-2.328,2.206-1.774c.8.4.449,1.722,1.578,2.75a19.173,19.173,0,0,0,5.782,2.77c.886.117,1.217-.626,1.546-.463s-.487,1.573-.65,1.9-.791,1.832-1.12,1.669.062-.877-.568-1.51a19.182,19.182,0,0,0-5.705-2.922C447.44,468.078,446.6,469.16,445.8,468.764Z" transform="translate(-432.824 -438.393)" fill="#6fa5e6"/>
            <path id="Path_10200" data-name="Path 10200" d="M698.779,595.238c1.115.554,2.206-1.774,2.206-1.774s1.192-2.279.075-2.83c-.8-.4-1.642.686-3.143.41a19.171,19.171,0,0,1-5.706-2.922c-.63-.634-.239-1.348-.568-1.51s-.957,1.34-1.119,1.669-.979,1.739-.65,1.9.66-.58,1.546-.463a19.176,19.176,0,0,1,5.782,2.77C698.33,593.516,697.979,594.841,698.779,595.238Z" transform="translate(-630.48 -537.453)" fill="#6fa5e6"/>
            <g id="Group_3605" data-name="Group 3605" transform="translate(39.799 19.398)">
              <path id="Path_10207" data-name="Path 10207" d="M592.354,439.918c0-.882-1.819-.842-1.819-.842s-1.82-.04-1.819.842c0,.632.951.826,1.248,1.865a13.568,13.568,0,0,1-.06,4.538c-.2.6-.78.576-.78.835s.368.684,1.385.684c.972,0,1.436-.424,1.436-.684s-.575-.236-.779-.835a13.566,13.566,0,0,1-.061-4.538C591.4,440.744,592.353,440.55,592.354,439.918Z" transform="translate(-588.557 -437.58)" fill="#6fa5e6"/>
              <circle id="Ellipse_342" data-name="Ellipse 342" cx="1.978" cy="1.978" r="1.978" fill="#6fa5e6"/>
            </g>
            <g id="Group_3606" data-name="Group 3606" transform="translate(38.979 53.495)">
              <path id="Path_10208" data-name="Path 10208" d="M592.354,617.284c0,.882-1.819.842-1.819.842s-1.82.04-1.819-.842c0-.632.951-.826,1.248-1.865a13.568,13.568,0,0,0-.06-4.538c-.2-.6-.78-.575-.78-.835s.475-.738,1.411-.738,1.41.478,1.41.738-.575.237-.779.835a13.567,13.567,0,0,0-.061,4.538C591.4,616.458,592.353,616.652,592.354,617.284Z" transform="translate(-587.738 -609.308)" fill="#6fa5e6"/>
              <circle id="Ellipse_343" data-name="Ellipse 343" cx="1.978" cy="1.978" r="1.978" transform="translate(0 8.627) rotate(-45)" fill="#6fa5e6"/>
            </g>
            <g id="Group_3607" data-name="Group 3607" transform="translate(19.426 39.771)">
              <path id="Path_10209" data-name="Path 10209" d="M490.158,542.115c-.882,0-.842-1.819-.842-1.819s-.04-1.82.842-1.819c.632,0,.826.951,1.865,1.248a13.57,13.57,0,0,0,4.538-.06c.6-.2.575-.78.835-.78s.684.368.684,1.386c0,.973-.424,1.436-.684,1.436s-.236-.576-.835-.779a13.569,13.569,0,0,0-4.538-.06C490.984,541.163,490.79,542.114,490.158,542.115Z" transform="translate(-487.82 -538.318)" fill="#6fa5e6"/>
              <path id="Path_10210" data-name="Path 10210" d="M483.485,541.6a1.978,1.978,0,1,1,1.978-1.978A1.978,1.978,0,0,1,483.485,541.6Z" transform="translate(-481.507 -537.647)" fill="#6fa5e6"/>
            </g>
            <g id="Group_3608" data-name="Group 3608" transform="translate(53.521 39.771)">
              <path id="Path_10211" data-name="Path 10211" d="M667.523,542.115c.882,0,.842-1.819.842-1.819s.04-1.82-.842-1.819c-.632,0-.826.951-1.865,1.248a13.573,13.573,0,0,1-4.538-.06c-.6-.2-.575-.78-.835-.78s-.738.476-.738,1.411.478,1.41.738,1.41.236-.576.835-.779a13.572,13.572,0,0,1,4.538-.06C666.7,541.163,666.891,542.114,667.523,542.115Z" transform="translate(-659.547 -538.318)" fill="#6fa5e6"/>
              <path id="Path_10212" data-name="Path 10212" d="M696.244,541.6a1.978,1.978,0,1,1,1.978-1.978A1.978,1.978,0,0,1,696.244,541.6Z" transform="translate(-687.617 -537.647)" fill="#6fa5e6"/>
            </g>
            <g id="Group_3609" data-name="Group 3609" transform="translate(49.697 25.365)">
              <path id="Path_10213" data-name="Path 10213" d="M647.095,469.229c.624-.623-.691-1.882-.691-1.882s-1.259-1.315-1.882-.691c-.446.447.089,1.256-.436,2.2a13.57,13.57,0,0,1-3.252,3.166c-.567.279-.958-.144-1.141.039s-.223.744.5,1.463c.688.687,1.315.715,1.5.532s-.24-.574.04-1.142a13.57,13.57,0,0,1,3.166-3.252C645.838,469.14,646.647,469.675,647.095,469.229Z" transform="translate(-639.579 -465.71)" fill="#6fa5e6"/>
              <path id="Path_10214" data-name="Path 10214" d="M666.484,465.8a1.978,1.978,0,1,0-2.8,0A1.978,1.978,0,0,0,666.484,465.8Z" transform="translate(-658.602 -462.425)" fill="#6fa5e6"/>
            </g>
            <g id="Group_3610" data-name="Group 3610" transform="translate(25.393 49.473)">
              <path id="Path_10215" data-name="Path 10215" d="M520.542,595.816c-.623.624-1.882-.691-1.882-.691s-1.315-1.259-.691-1.882c.448-.446,1.256.089,2.2-.436a13.586,13.586,0,0,0,3.166-3.252c.279-.568-.144-.958.039-1.142s.858-.185,1.519.476.66,1.335.476,1.519-.574-.24-1.141.04a13.57,13.57,0,0,0-3.252,3.166C520.453,594.559,520.988,595.368,520.542,595.816Z" transform="translate(-516.818 -588.308)" fill="#6fa5e6"/>
              <path id="Path_10216" data-name="Path 10216" d="M516.041,616.246a1.978,1.978,0,1,0-2.8,0A1.978,1.978,0,0,0,516.041,616.246Z" transform="translate(-512.664 -608.166)" fill="#6fa5e6"/>
            </g>
            <g id="Group_3611" data-name="Group 3611" transform="translate(25.393 25.365)">
              <path id="Path_10217" data-name="Path 10217" d="M516.9,469.229c-.624-.623.691-1.882.691-1.882s1.259-1.315,1.881-.691c.447.447-.088,1.256.437,2.2a13.574,13.574,0,0,0,3.251,3.166c.568.279.958-.144,1.142.039s.223.744-.5,1.463c-.688.687-1.315.715-1.5.532s.24-.574-.039-1.142a13.573,13.573,0,0,0-3.166-3.252C518.152,469.14,517.343,469.675,516.9,469.229Z" transform="translate(-515.95 -465.71)" fill="#6fa5e6"/>
              <path id="Path_10218" data-name="Path 10218" d="M513.244,465.8a1.978,1.978,0,1,1,2.8,0A1.978,1.978,0,0,1,513.244,465.8Z" transform="translate(-512.664 -462.425)" fill="#6fa5e6"/>
            </g>
            <g id="Group_3612" data-name="Group 3612" transform="translate(49.5 49.473)">
              <path id="Path_10219" data-name="Path 10219" d="M643.482,595.816c.623.624,1.882-.691,1.882-.691s1.315-1.259.691-1.882c-.448-.446-1.257.089-2.2-.436a13.6,13.6,0,0,1-3.166-3.252c-.279-.568.145-.958-.04-1.142s-.857-.185-1.519.476-.66,1.335-.476,1.519.574-.24,1.142.04a13.565,13.565,0,0,1,3.252,3.166C643.57,594.559,643.035,595.368,643.482,595.816Z" transform="translate(-638.547 -588.308)" fill="#6fa5e6"/>
              <path id="Path_10220" data-name="Path 10220" d="M663.687,616.246a1.978,1.978,0,1,1,2.8,0A1.977,1.977,0,0,1,663.687,616.246Z" transform="translate(-658.404 -608.166)" fill="#6fa5e6"/>
            </g>
            <path id="Path_10221" data-name="Path 10221" d="M608.692,507.5a1.978,1.978,0,1,0-2.8,0A1.978,1.978,0,0,0,608.692,507.5Z" transform="translate(-562.18 -470.77)" fill="#6fa5e6"/>
            <path id="Path_10222" data-name="Path 10222" d="M554.378,534.012a1.978,1.978,0,1,0-2.8,0A1.978,1.978,0,0,0,554.378,534.012Z" transform="translate(-518.268 -492.207)" fill="#6fa5e6"/>
          </g>
          <path id="Path_10223" data-name="Path 10223" d="M604.411,566.921a1.978,1.978,0,1,0-2.8,0A1.978,1.978,0,0,0,604.411,566.921Z" transform="translate(-558.718 -518.814)" fill="#6fa5e6"/>
          <path id="Path_10224" data-name="Path 10224" d="M602.714,557.255a4.748,4.748,0,0,0-.532-1.666c-.436-.743.973-1.05,1.1-.512s-.23,1.051.589,1.563S602.714,557.255,602.714,557.255Z" transform="translate(-559.578 -511.748)" fill="#5492dd"/>
          <path id="Path_10225" data-name="Path 10225" d="M602.6,518.721s-1.127.384-1.358.948-.9.359-1.178-.474.256-.474.666-.7a1.447,1.447,0,0,0,.563-.794Z" transform="translate(-557.869 -481.746)" fill="#5492dd"/>
          <path id="Path_10226" data-name="Path 10226" d="M567.34,540.963s.794.643,1.383.438.718.768.308,1.153-.487-.18-1-.436a2.828,2.828,0,0,0-1.486-.026Z" transform="translate(-530.835 -500.557)" fill="#5492dd"/>
        </g>
        <g id="Group_3738" data-name="Group 3738" transform="translate(210.393 98.361)" opacity="0.584">
          <circle id="Ellipse_341-2" data-name="Ellipse 341" cx="9.715" cy="9.715" r="9.715" transform="translate(1.103 14.842) rotate(-45)" fill="#108ed6"/>
          <path id="Path_10191-2" data-name="Path 10191" d="M583.113,330.525c0-.577-1.19-.551-1.19-.551s-1.191-.026-1.19.551c0,.414.623.54.817,1.22a8.889,8.889,0,0,1-.039,2.969c-.134.392-.51.376-.51.546s.753.121.923.121.923.049.923-.121-.377-.155-.51-.546a8.881,8.881,0,0,1-.039-2.969C582.491,331.066,583.113,330.939,583.113,330.525Z" transform="translate(-567.072 -329.974)" fill="#7da9ce"/>
          <path id="Path_10192-2" data-name="Path 10192" d="M583.113,691.582c0,.577-1.19.551-1.19.551s-1.191.026-1.19-.551c0-.414.623-.54.817-1.22a8.888,8.888,0,0,0-.039-2.969c-.134-.392-.51-.377-.51-.546s.753-.121.923-.121.923-.049.923.121-.377.155-.51.546a8.88,8.88,0,0,0-.039,2.969C582.491,691.042,583.113,691.169,583.113,691.582Z" transform="translate(-567.072 -662.431)" fill="#7da9ce"/>
          <path id="Path_10201-2" data-name="Path 10201" d="M380.624,533.015c-.577,0-.551-1.19-.551-1.19s-.026-1.191.551-1.19c.414,0,.54.622,1.22.817a8.885,8.885,0,0,0,2.969-.04c.392-.133.377-.51.547-.51s.121.753.121.923.049.923-.121.923-.155-.377-.547-.51a8.884,8.884,0,0,0-2.969-.039C381.165,532.393,381.038,533.015,380.624,533.015Z" transform="translate(-380.073 -516.974)" fill="#7da9ce"/>
          <path id="Path_10202-2" data-name="Path 10202" d="M741.681,533.015c.577,0,.551-1.19.551-1.19s.026-1.191-.551-1.19c-.414,0-.54.622-1.22.817a8.884,8.884,0,0,1-2.969-.04c-.392-.133-.377-.51-.547-.51s-.121.753-.121.923-.049.923.121.923.155-.377.547-.51a8.883,8.883,0,0,1,2.969-.039C741.14,532.393,741.267,533.015,741.681,533.015Z" transform="translate(-712.529 -516.974)" fill="#7da9ce"/>
          <path id="Path_10203-2" data-name="Path 10203" d="M692.579,387.408c.408-.407-.452-1.231-.452-1.231s-.824-.86-1.231-.452c-.292.293.058.822-.286,1.441a8.882,8.882,0,0,1-2.128,2.072c-.371.183-.627-.094-.747.026s.446.618.567.739.618.687.739.567-.157-.376.026-.747a8.884,8.884,0,0,1,2.072-2.127C691.757,387.35,692.286,387.7,692.579,387.408Z" transform="translate(-666.774 -381.827)" fill="#7da9ce"/>
          <path id="Path_10204-2" data-name="Path 10204" d="M437.506,642.48c-.407.408-1.231-.452-1.231-.452s-.86-.824-.452-1.231c.293-.292.822.058,1.441-.286a8.881,8.881,0,0,0,2.072-2.127c.183-.371-.094-.627.026-.747s.618.447.738.567.687.618.567.739-.376-.157-.747.026a8.882,8.882,0,0,0-2.128,2.072C437.448,641.658,437.8,642.188,437.506,642.48Z" transform="translate(-431.925 -616.675)" fill="#7da9ce"/>
          <path id="Path_10205-2" data-name="Path 10205" d="M435.823,387.408c-.408-.407.452-1.231.452-1.231s.824-.86,1.231-.452c.292.293-.058.822.286,1.441a8.881,8.881,0,0,0,2.128,2.072c.371.183.627-.094.747.026s-.447.618-.567.739-.618.687-.738.567.157-.376-.026-.747a8.881,8.881,0,0,0-2.072-2.127C436.645,387.35,436.115,387.7,435.823,387.408Z" transform="translate(-431.925 -381.827)" fill="#7da9ce"/>
          <path id="Path_10206-2" data-name="Path 10206" d="M690.9,642.48c.407.408,1.231-.452,1.231-.452s.86-.824.452-1.231c-.293-.292-.822.058-1.441-.286a8.884,8.884,0,0,1-2.072-2.127c-.183-.371.094-.627-.026-.747s-.618.447-.739.567-.687.618-.567.739.376-.157.747.026a8.885,8.885,0,0,1,2.128,2.072C690.954,641.658,690.6,642.188,690.9,642.48Z" transform="translate(-666.774 -616.675)" fill="#7da9ce"/>
          <g id="Group_3737-2" data-name="Group 3737" transform="translate(4.443 4.152)">
            <path id="Path_10193-2" data-name="Path 10193" d="M632.206,391.84c.168-.41-.686-.737-.686-.737s-.838-.364-1.005.046c-.12.294.285.565.226,1.1a6.82,6.82,0,0,1-.89,2.1c-.209.239-.472.119-.521.24s.5.3.62.354.642.3.691.182-.223-.219-.2-.536a6.817,6.817,0,0,1,.834-2.121C631.607,392.043,632.085,392.134,632.206,391.84Z" transform="translate(-616.799 -390.954)" fill="#6fa5e6"/>
            <path id="Path_10194-2" data-name="Path 10194" d="M526.2,647.517c-.167.41-1.005.046-1.005.046s-.854-.327-.685-.737c.12-.294.6-.2.934-.63a6.815,6.815,0,0,0,.834-2.121c.019-.317-.253-.416-.2-.536s.57.133.691.182.67.234.62.354-.313,0-.521.24a6.819,6.819,0,0,0-.89,2.1C525.914,646.952,526.319,647.223,526.2,647.517Z" transform="translate(-519.097 -626.313)" fill="#6fa5e6"/>
            <path id="Path_10195-2" data-name="Path 10195" d="M524.508,391.84c-.168-.41.685-.737.685-.737s.838-.364,1.005.046c.12.294-.285.565-.226,1.1a6.819,6.819,0,0,0,.89,2.1c.208.239.472.119.521.24s-.5.3-.62.354-.642.3-.691.182.223-.219.2-.536a6.816,6.816,0,0,0-.834-2.121C525.107,392.043,524.629,392.134,524.508,391.84Z" transform="translate(-519.097 -390.954)" fill="#6fa5e6"/>
            <path id="Path_10196-2" data-name="Path 10196" d="M630.515,647.517c.167.41,1.005.046,1.005.046s.854-.327.686-.737c-.12-.294-.6-.2-.934-.63a6.817,6.817,0,0,1-.834-2.121c-.019-.317.253-.416.2-.536s-.57.133-.691.182-.67.234-.62.354.313,0,.521.24a6.82,6.82,0,0,1,.89,2.1C630.8,646.952,630.395,647.223,630.515,647.517Z" transform="translate(-616.799 -626.313)" fill="#6fa5e6"/>
            <path id="Path_10197-2" data-name="Path 10197" d="M693.8,465.742c.4-.2-.027-1.006-.027-1.006s-.388-.828-.784-.631c-.284.141-.16.612-.561.977a6.819,6.819,0,0,1-2.055.985c-.315.042-.433-.222-.55-.165s.173.559.231.676.281.651.4.593-.022-.312.2-.537a6.818,6.818,0,0,1,2.029-1.039C693.217,465.5,693.516,465.882,693.8,465.742Z" transform="translate(-673.152 -459.096)" fill="#6fa5e6"/>
            <path id="Path_10198-2" data-name="Path 10198" d="M446.3,589.67c-.4.2-.784-.631-.784-.631s-.424-.81-.027-1.006c.285-.141.584.244,1.118.146a6.816,6.816,0,0,0,2.028-1.039c.224-.225.085-.479.2-.537s.34.476.4.593.348.618.231.676-.235-.206-.55-.164a6.813,6.813,0,0,0-2.055.984C446.461,589.058,446.586,589.529,446.3,589.67Z" transform="translate(-445.321 -573.279)" fill="#6fa5e6"/>
            <path id="Path_10199-2" data-name="Path 10199" d="M445.491,465.742c-.4-.2.027-1.006.027-1.006s.388-.828.784-.631c.284.141.16.612.561.977a6.815,6.815,0,0,0,2.055.985c.315.042.433-.222.55-.165s-.173.559-.231.676-.281.651-.4.593.022-.312-.2-.537a6.819,6.819,0,0,0-2.028-1.039C446.074,465.5,445.775,465.882,445.491,465.742Z" transform="translate(-445.321 -459.096)" fill="#6fa5e6"/>
            <path id="Path_10200-2" data-name="Path 10200" d="M692.99,589.67c.4.2.784-.631.784-.631s.424-.81.027-1.006c-.285-.141-.584.244-1.117.146a6.815,6.815,0,0,1-2.029-1.039c-.224-.225-.085-.479-.2-.537s-.34.476-.4.593-.348.618-.231.676.235-.206.55-.164a6.816,6.816,0,0,1,2.055.984C692.83,589.058,692.705,589.529,692.99,589.67Z" transform="translate(-673.152 -573.279)" fill="#6fa5e6"/>
            <g id="Group_3605-2" data-name="Group 3605" transform="translate(9.706 2.744)">
              <path id="Path_10207-2" data-name="Path 10207" d="M590.009,439.375c0-.313-.646-.3-.646-.3s-.647-.014-.647.3c0,.225.338.294.444.663a4.822,4.822,0,0,1-.021,1.613c-.073.213-.277.2-.277.3s.131.243.493.243c.346,0,.51-.151.51-.243s-.2-.084-.277-.3a4.819,4.819,0,0,1-.021-1.613C589.671,439.669,590.009,439.6,590.009,439.375Z" transform="translate(-588.66 -438.544)" fill="#6fa5e6"/>
              <circle id="Ellipse_342-2" data-name="Ellipse 342" cx="0.703" cy="0.703" r="0.703" fill="#6fa5e6"/>
            </g>
            <g id="Group_3606-2" data-name="Group 3606" transform="translate(9.414 14.866)">
              <path id="Path_10208-2" data-name="Path 10208" d="M590.009,612.144c0,.313-.646.3-.646.3s-.647.014-.647-.3c0-.225.338-.294.444-.663a4.822,4.822,0,0,0-.021-1.613c-.073-.213-.277-.2-.277-.3s.169-.262.5-.262.5.17.5.262-.2.084-.277.3a4.819,4.819,0,0,0-.021,1.613C589.671,611.85,590.009,611.919,590.009,612.144Z" transform="translate(-588.368 -609.308)" fill="#6fa5e6"/>
              <circle id="Ellipse_343-2" data-name="Ellipse 343" cx="0.703" cy="0.703" r="0.703" transform="translate(0 3.067) rotate(-45)" fill="#6fa5e6"/>
            </g>
            <g id="Group_3607-2" data-name="Group 3607" transform="translate(2.463 9.987)">
              <path id="Path_10209-2" data-name="Path 10209" d="M489.615,539.77c-.313,0-.3-.647-.3-.647s-.014-.647.3-.647c.225,0,.294.338.663.444a4.822,4.822,0,0,0,1.613-.021c.213-.072.2-.277.3-.277s.243.131.243.493c0,.346-.151.51-.243.51s-.084-.2-.3-.277a4.825,4.825,0,0,0-1.613-.021C489.909,539.432,489.84,539.77,489.615,539.77Z" transform="translate(-488.784 -538.421)" fill="#6fa5e6"/>
              <path id="Path_10210-2" data-name="Path 10210" d="M482.21,539.053a.7.7,0,1,1,.7-.7A.7.7,0,0,1,482.21,539.053Z" transform="translate(-481.507 -537.647)" fill="#6fa5e6"/>
            </g>
            <g id="Group_3608-2" data-name="Group 3608" transform="translate(14.585 9.987)">
              <path id="Path_10211-2" data-name="Path 10211" d="M662.383,539.77c.314,0,.3-.647.3-.647s.014-.647-.3-.647c-.225,0-.294.338-.663.444a4.824,4.824,0,0,1-1.613-.021c-.213-.072-.2-.277-.3-.277s-.262.169-.262.5.17.5.262.5.084-.2.3-.277a4.826,4.826,0,0,1,1.613-.021C662.089,539.432,662.158,539.77,662.383,539.77Z" transform="translate(-659.547 -538.421)" fill="#6fa5e6"/>
              <path id="Path_10212-2" data-name="Path 10212" d="M694.969,539.053a.7.7,0,1,1,.7-.7A.7.7,0,0,1,694.969,539.053Z" transform="translate(-691.902 -537.647)" fill="#6fa5e6"/>
            </g>
            <g id="Group_3609-2" data-name="Group 3609" transform="translate(13.225 4.866)">
              <path id="Path_10213-2" data-name="Path 10213" d="M642.251,467.463c.222-.221-.245-.669-.245-.669s-.448-.467-.669-.246c-.159.159.032.447-.155.783a4.824,4.824,0,0,1-1.156,1.126c-.2.1-.34-.051-.406.014s-.079.264.176.52.467.254.533.189-.085-.2.014-.406a4.825,4.825,0,0,1,1.126-1.156C641.8,467.431,642.092,467.621,642.251,467.463Z" transform="translate(-639.579 -466.212)" fill="#6fa5e6"/>
              <path id="Path_10214-2" data-name="Path 10214" d="M664.308,463.626a.7.7,0,1,0-.994,0A.7.7,0,0,0,664.308,463.626Z" transform="translate(-661.506 -462.425)" fill="#6fa5e6"/>
            </g>
            <g id="Group_3610-2" data-name="Group 3610" transform="translate(4.585 13.436)">
              <path id="Path_10215-2" data-name="Path 10215" d="M518.776,590.977c-.221.222-.669-.246-.669-.246s-.468-.448-.246-.669c.159-.159.447.032.783-.155a4.83,4.83,0,0,0,1.126-1.156c.1-.2-.051-.341.014-.406s.3-.066.54.169.234.475.169.54-.2-.085-.406.014a4.823,4.823,0,0,0-1.156,1.126C518.744,590.531,518.934,590.818,518.776,590.977Z" transform="translate(-517.452 -588.308)" fill="#6fa5e6"/>
              <path id="Path_10216-2" data-name="Path 10216" d="M513.865,614.07a.7.7,0,1,0-.994,0A.7.7,0,0,0,513.865,614.07Z" transform="translate(-512.664 -611.197)" fill="#6fa5e6"/>
            </g>
            <g id="Group_3611-2" data-name="Group 3611" transform="translate(4.585 4.866)">
              <path id="Path_10217-2" data-name="Path 10217" d="M516.787,467.463c-.222-.221.245-.669.245-.669s.448-.467.669-.246c.159.159-.031.447.155.783a4.825,4.825,0,0,0,1.156,1.126c.2.1.341-.051.406.014s.079.264-.176.52-.467.254-.533.189.085-.2-.014-.406a4.826,4.826,0,0,0-1.125-1.156C517.234,467.431,516.946,467.621,516.787,467.463Z" transform="translate(-516.451 -466.212)" fill="#6fa5e6"/>
              <path id="Path_10218-2" data-name="Path 10218" d="M512.87,463.626a.7.7,0,1,1,.994,0A.7.7,0,0,1,512.87,463.626Z" transform="translate(-512.664 -462.425)" fill="#6fa5e6"/>
            </g>
            <g id="Group_3612-2" data-name="Group 3612" transform="translate(13.155 13.436)">
              <path id="Path_10219-2" data-name="Path 10219" d="M640.3,590.977c.221.222.669-.246.669-.246s.467-.448.246-.669c-.159-.159-.447.032-.783-.155a4.833,4.833,0,0,1-1.126-1.156c-.1-.2.051-.341-.014-.406s-.3-.066-.54.169-.235.475-.169.54.2-.085.406.014a4.819,4.819,0,0,1,1.156,1.126C640.333,590.531,640.142,590.818,640.3,590.977Z" transform="translate(-638.547 -588.308)" fill="#6fa5e6"/>
              <path id="Path_10220-2" data-name="Path 10220" d="M663.314,614.07a.7.7,0,1,1,.994,0A.7.7,0,0,1,663.314,614.07Z" transform="translate(-661.435 -611.197)" fill="#6fa5e6"/>
            </g>
            <path id="Path_10221-2" data-name="Path 10221" d="M606.516,505.321a.7.7,0,1,0-.994,0A.7.7,0,0,0,606.516,505.321Z" transform="translate(-594.423 -496.416)" fill="#6fa5e6"/>
            <path id="Path_10222-2" data-name="Path 10222" d="M552.2,531.836a.7.7,0,1,0-.994,0A.7.7,0,0,0,552.2,531.836Z" transform="translate(-543.807 -521.126)" fill="#6fa5e6"/>
          </g>
          <path id="Path_10223-2" data-name="Path 10223" d="M602.234,564.745a.7.7,0,1,0-.994,0A.7.7,0,0,0,602.234,564.745Z" transform="translate(-585.991 -547.643)" fill="#6fa5e6"/>
          <path id="Path_10224-2" data-name="Path 10224" d="M602.317,555.676a1.687,1.687,0,0,0-.189-.592c-.155-.264.346-.373.392-.182s-.082.373.209.556S602.317,555.676,602.317,555.676Z" transform="translate(-586.982 -539.498)" fill="#5492dd"/>
          <path id="Path_10225-2" data-name="Path 10225" d="M600.913,518.06s-.4.137-.483.337-.319.128-.419-.169.091-.169.237-.25a.515.515,0,0,0,.2-.282Z" transform="translate(-585.011 -504.916)" fill="#5492dd"/>
          <path id="Path_10226-2" data-name="Path 10226" d="M566.828,540.963s.282.229.492.156.255.273.109.41-.173-.064-.355-.155a1.006,1.006,0,0,0-.528-.009Z" transform="translate(-553.851 -526.598)" fill="#5492dd"/>
        </g>
        <g id="Group_3739" data-name="Group 3739" transform="translate(-53.307 152.521)" opacity="0.584">
          <circle id="Ellipse_341-3" data-name="Ellipse 341" cx="13.977" cy="13.977" r="13.977" transform="translate(1.586 21.352) rotate(-45)" fill="#108ed6"/>
          <path id="Path_10191-3" data-name="Path 10191" d="M584.157,330.767c0-.83-1.712-.793-1.712-.793s-1.713-.037-1.712.793c0,.6.9.777,1.175,1.756a12.791,12.791,0,0,1-.057,4.272c-.192.563-.734.542-.734.786s1.083.175,1.328.175,1.328.07,1.328-.175-.542-.223-.734-.786a12.781,12.781,0,0,1-.057-4.272C583.262,331.545,584.157,331.362,584.157,330.767Z" transform="translate(-561.079 -329.974)" fill="#7da9ce"/>
          <path id="Path_10192-3" data-name="Path 10192" d="M584.157,693.716c0,.83-1.712.793-1.712.793s-1.713.037-1.712-.793c0-.6.9-.777,1.175-1.756a12.79,12.79,0,0,0-.057-4.272c-.192-.564-.734-.542-.734-.786s1.083-.175,1.328-.175,1.328-.07,1.328.175-.542.223-.734.786a12.78,12.78,0,0,0-.057,4.272C583.262,692.939,584.157,693.121,584.157,693.716Z" transform="translate(-561.079 -651.777)" fill="#7da9ce"/>
          <path id="Path_10201-3" data-name="Path 10201" d="M380.866,534.059c-.83,0-.793-1.712-.793-1.712s-.037-1.713.793-1.712c.6,0,.777.9,1.756,1.175a12.781,12.781,0,0,0,4.272-.057c.564-.192.542-.734.786-.734s.175,1.083.175,1.328.07,1.328-.175,1.328-.223-.542-.786-.734a12.783,12.783,0,0,0-4.272-.057C381.644,533.164,381.461,534.059,380.866,534.059Z" transform="translate(-380.073 -510.981)" fill="#7da9ce"/>
          <path id="Path_10202-3" data-name="Path 10202" d="M743.814,534.059c.83,0,.793-1.712.793-1.712s.037-1.713-.793-1.712c-.6,0-.777.9-1.756,1.175a12.779,12.779,0,0,1-4.271-.057c-.564-.192-.542-.734-.786-.734s-.175,1.083-.175,1.328-.07,1.328.175,1.328.223-.542.786-.734a12.782,12.782,0,0,1,4.271-.057C743.037,533.164,743.219,534.059,743.814,534.059Z" transform="translate(-701.875 -510.981)" fill="#7da9ce"/>
          <path id="Path_10203-3" data-name="Path 10203" d="M694.711,388.194c.587-.586-.65-1.771-.65-1.771s-1.185-1.238-1.771-.65c-.42.421.083,1.183-.411,2.072a12.777,12.777,0,0,1-3.061,2.98c-.534.263-.9-.136-1.075.037s.642.89.815,1.062.89.988,1.063.815-.226-.541.037-1.075a12.779,12.779,0,0,1,2.98-3.061C693.528,388.111,694.29,388.615,694.711,388.194Z" transform="translate(-657.587 -380.165)" fill="#7da9ce"/>
          <path id="Path_10204-3" data-name="Path 10204" d="M438.292,644.612c-.586.587-1.771-.65-1.771-.65s-1.238-1.185-.65-1.771c.421-.42,1.183.083,2.072-.411a12.776,12.776,0,0,0,2.98-3.061c.263-.534-.136-.9.037-1.075s.889.642,1.062.815.988.889.815,1.062-.541-.225-1.075.037a12.778,12.778,0,0,0-3.061,2.98C438.209,643.429,438.713,644.191,438.292,644.612Z" transform="translate(-430.263 -607.488)" fill="#7da9ce"/>
          <path id="Path_10205-3" data-name="Path 10205" d="M435.871,388.194c-.588-.586.65-1.771.65-1.771s1.185-1.238,1.771-.65c.42.421-.083,1.183.411,2.072a12.777,12.777,0,0,0,3.061,2.98c.534.263.9-.136,1.075.037s-.642.89-.815,1.062-.889.988-1.062.815.226-.541-.037-1.075a12.776,12.776,0,0,0-2.98-3.061C437.054,388.111,436.292,388.615,435.871,388.194Z" transform="translate(-430.263 -380.165)" fill="#7da9ce"/>
          <path id="Path_10206-3" data-name="Path 10206" d="M692.29,644.612c.586.587,1.771-.65,1.771-.65s1.238-1.185.65-1.771c-.421-.42-1.183.083-2.073-.411a12.78,12.78,0,0,1-2.98-3.061c-.263-.534.136-.9-.037-1.075s-.89.642-1.062.815-.988.889-.815,1.062.541-.225,1.075.037a12.782,12.782,0,0,1,3.061,2.98C692.373,643.429,691.869,644.191,692.29,644.612Z" transform="translate(-657.587 -607.488)" fill="#7da9ce"/>
          <g id="Group_3737-3" data-name="Group 3737" transform="translate(6.391 5.973)">
            <path id="Path_10193-3" data-name="Path 10193" d="M633.469,392.229c.242-.589-.986-1.06-.986-1.06s-1.206-.524-1.446.066c-.172.423.411.812.325,1.588a9.813,9.813,0,0,1-1.281,3.018c-.3.345-.679.172-.75.346s.719.439.893.51.923.435.994.261-.32-.315-.293-.772a9.81,9.81,0,0,1,1.2-3.051C632.607,392.521,633.3,392.651,633.469,392.229Z" transform="translate(-611.304 -390.954)" fill="#6fa5e6"/>
            <path id="Path_10194-3" data-name="Path 10194" d="M526.951,649.276c-.24.59-1.447.066-1.447.066s-1.228-.471-.986-1.06c.173-.423.862-.292,1.344-.906a9.806,9.806,0,0,0,1.2-3.051c.027-.456-.364-.6-.293-.771s.82.191.994.261.964.336.893.51-.45,0-.749.346a9.81,9.81,0,0,0-1.281,3.018C526.54,648.464,527.123,648.853,526.951,649.276Z" transform="translate(-516.733 -618.77)" fill="#6fa5e6"/>
            <path id="Path_10195-3" data-name="Path 10195" d="M524.518,392.229c-.242-.589.986-1.06.986-1.06s1.206-.524,1.447.066c.172.423-.41.812-.325,1.588a9.811,9.811,0,0,0,1.281,3.018c.3.345.678.172.749.346s-.719.439-.893.51-.923.435-.994.261.32-.315.293-.772a9.808,9.808,0,0,0-1.2-3.051C525.38,392.521,524.691,392.651,524.518,392.229Z" transform="translate(-516.733 -390.954)" fill="#6fa5e6"/>
            <path id="Path_10196-3" data-name="Path 10196" d="M631.036,649.276c.24.59,1.446.066,1.446.066s1.228-.471.986-1.06c-.173-.423-.862-.292-1.344-.906a9.807,9.807,0,0,1-1.2-3.051c-.027-.456.364-.6.293-.771s-.82.191-.994.261-.964.336-.893.51.45,0,.75.346a9.812,9.812,0,0,1,1.281,3.018C631.447,648.464,630.864,648.853,631.036,649.276Z" transform="translate(-611.304 -618.77)" fill="#6fa5e6"/>
            <path id="Path_10197-3" data-name="Path 10197" d="M695.557,466.473c.571-.282-.039-1.447-.039-1.447s-.558-1.191-1.128-.907c-.409.2-.229.881-.807,1.406a9.814,9.814,0,0,1-2.957,1.417c-.453.06-.622-.32-.791-.237s.249.8.332.973.4.937.573.854-.032-.448.291-.773a9.809,9.809,0,0,1,2.918-1.495C694.717,466.122,695.148,466.675,695.557,466.473Z" transform="translate(-665.851 -456.913)" fill="#6fa5e6"/>
            <path id="Path_10198-3" data-name="Path 10198" d="M446.732,591.018c-.57.283-1.128-.907-1.128-.907s-.609-1.165-.039-1.448c.409-.2.84.351,1.608.21a9.807,9.807,0,0,0,2.918-1.495c.322-.324.122-.689.291-.772s.489.685.573.854.5.889.332.973-.338-.3-.791-.237a9.8,9.8,0,0,0-2.957,1.416C446.961,590.137,447.141,590.814,446.732,591.018Z" transform="translate(-445.321 -567.437)" fill="#6fa5e6"/>
            <path id="Path_10199-3" data-name="Path 10199" d="M445.565,466.473c-.571-.282.039-1.447.039-1.447s.558-1.191,1.128-.907c.409.2.229.881.807,1.406a9.808,9.808,0,0,0,2.957,1.417c.453.06.622-.32.791-.237s-.249.8-.332.973-.4.937-.573.854.032-.448-.291-.773a9.812,9.812,0,0,0-2.918-1.495C446.4,466.122,445.974,466.675,445.565,466.473Z" transform="translate(-445.321 -456.913)" fill="#6fa5e6"/>
            <path id="Path_10200-3" data-name="Path 10200" d="M694.39,591.018c.57.283,1.128-.907,1.128-.907s.61-1.165.039-1.448c-.41-.2-.84.351-1.608.21a9.8,9.8,0,0,1-2.918-1.495c-.322-.324-.122-.689-.291-.772s-.489.685-.573.854-.5.889-.332.973.338-.3.791-.237a9.808,9.808,0,0,1,2.957,1.416C694.161,590.137,693.982,590.814,694.39,591.018Z" transform="translate(-665.851 -567.437)" fill="#6fa5e6"/>
            <g id="Group_3605-3" data-name="Group 3605" transform="translate(13.964 3.948)">
              <path id="Path_10207-3" data-name="Path 10207" d="M590.577,439.506c0-.451-.93-.431-.93-.431s-.931-.02-.931.431c0,.323.487.422.638.954a6.942,6.942,0,0,1-.031,2.321c-.1.306-.4.294-.4.427s.188.35.709.35c.5,0,.734-.217.734-.35s-.294-.121-.4-.427a6.938,6.938,0,0,1-.031-2.321C590.09,439.929,590.576,439.83,590.577,439.506Z" transform="translate(-588.635 -438.311)" fill="#6fa5e6"/>
              <circle id="Ellipse_342-3" data-name="Ellipse 342" cx="1.012" cy="1.012" r="1.012" fill="#6fa5e6"/>
            </g>
            <g id="Group_3606-3" data-name="Group 3606" transform="translate(13.544 21.387)">
              <path id="Path_10208-3" data-name="Path 10208" d="M590.577,613.387c0,.451-.93.431-.93.431s-.931.02-.931-.431c0-.323.487-.422.638-.954a6.943,6.943,0,0,0-.031-2.321c-.1-.306-.4-.294-.4-.427s.243-.377.722-.377.721.244.721.377-.294.121-.4.427a6.939,6.939,0,0,0-.031,2.321C590.09,612.965,590.576,613.064,590.577,613.387Z" transform="translate(-588.216 -609.308)" fill="#6fa5e6"/>
              <circle id="Ellipse_343-3" data-name="Ellipse 343" cx="1.012" cy="1.012" r="1.012" transform="translate(0 4.412) rotate(-45)" fill="#6fa5e6"/>
            </g>
            <g id="Group_3607-3" data-name="Group 3607" transform="translate(3.544 14.368)">
              <path id="Path_10209-3" data-name="Path 10209" d="M489.746,540.338c-.451,0-.431-.93-.431-.93s-.02-.931.431-.93c.323,0,.422.487.954.638a6.939,6.939,0,0,0,2.321-.031c.306-.1.294-.4.427-.4s.35.188.35.709c0,.5-.217.734-.35.734s-.121-.294-.427-.4a6.938,6.938,0,0,0-2.321-.031C490.169,539.851,490.07,540.337,489.746,540.338Z" transform="translate(-488.551 -538.396)" fill="#6fa5e6"/>
              <path id="Path_10210-3" data-name="Path 10210" d="M482.518,539.67a1.012,1.012,0,1,1,1.012-1.011A1.011,1.011,0,0,1,482.518,539.67Z" transform="translate(-481.507 -537.647)" fill="#6fa5e6"/>
            </g>
            <g id="Group_3608-3" data-name="Group 3608" transform="translate(20.982 14.368)">
              <path id="Path_10211-3" data-name="Path 10211" d="M663.626,540.338c.451,0,.431-.93.431-.93s.02-.931-.431-.93c-.323,0-.422.487-.954.638a6.941,6.941,0,0,1-2.321-.031c-.306-.1-.294-.4-.427-.4s-.377.243-.377.722.244.721.377.721.121-.294.427-.4a6.94,6.94,0,0,1,2.321-.031C663.2,539.851,663.3,540.337,663.626,540.338Z" transform="translate(-659.547 -538.396)" fill="#6fa5e6"/>
              <path id="Path_10212-3" data-name="Path 10212" d="M695.278,539.67a1.012,1.012,0,1,1,1.012-1.011A1.012,1.012,0,0,1,695.278,539.67Z" transform="translate(-690.865 -537.647)" fill="#6fa5e6"/>
            </g>
            <g id="Group_3609-3" data-name="Group 3609" transform="translate(19.026 7)">
              <path id="Path_10213-3" data-name="Path 10213" d="M643.423,467.89c.319-.319-.353-.962-.353-.962s-.644-.672-.963-.353c-.228.229.045.643-.223,1.126a6.941,6.941,0,0,1-1.663,1.619c-.29.143-.49-.074-.584.02s-.114.38.254.748c.352.352.672.366.766.272s-.122-.294.02-.584a6.94,6.94,0,0,1,1.619-1.663C642.78,467.845,643.194,468.118,643.423,467.89Z" transform="translate(-639.579 -466.09)" fill="#6fa5e6"/>
              <path id="Path_10214-3" data-name="Path 10214" d="M664.834,464.152a1.012,1.012,0,1,0-1.43,0A1.011,1.011,0,0,0,664.834,464.152Z" transform="translate(-660.803 -462.425)" fill="#6fa5e6"/>
            </g>
            <g id="Group_3610-3" data-name="Group 3610" transform="translate(6.596 19.33)">
              <path id="Path_10215-3" data-name="Path 10215" d="M519.2,592.148c-.319.319-.962-.353-.962-.353s-.673-.644-.353-.962c.229-.228.643.045,1.126-.223a6.951,6.951,0,0,0,1.619-1.663c.143-.29-.074-.49.02-.584s.439-.095.777.243.337.683.243.777-.294-.123-.584.02a6.94,6.94,0,0,0-1.663,1.619C519.158,591.505,519.431,591.919,519.2,592.148Z" transform="translate(-517.298 -588.308)" fill="#6fa5e6"/>
              <path id="Path_10216-3" data-name="Path 10216" d="M514.391,614.6a1.012,1.012,0,1,0-1.431,0A1.012,1.012,0,0,0,514.391,614.6Z" transform="translate(-512.664 -610.464)" fill="#6fa5e6"/>
            </g>
            <g id="Group_3611-3" data-name="Group 3611" transform="translate(6.596 7)">
              <path id="Path_10217-3" data-name="Path 10217" d="M516.813,467.89c-.319-.319.353-.962.353-.962s.644-.672.962-.353c.228.229-.045.643.223,1.126a6.941,6.941,0,0,0,1.663,1.619c.29.143.49-.074.584.02s.114.38-.254.748c-.352.352-.672.366-.766.272s.123-.294-.02-.584a6.945,6.945,0,0,0-1.619-1.663C517.456,467.845,517.042,468.118,516.813,467.89Z" transform="translate(-516.33 -466.09)" fill="#6fa5e6"/>
              <path id="Path_10218-3" data-name="Path 10218" d="M512.961,464.152a1.012,1.012,0,1,1,1.431,0A1.012,1.012,0,0,1,512.961,464.152Z" transform="translate(-512.664 -462.425)" fill="#6fa5e6"/>
            </g>
            <g id="Group_3612-3" data-name="Group 3612" transform="translate(18.925 19.33)">
              <path id="Path_10219-3" data-name="Path 10219" d="M641.071,592.148c.319.319.962-.353.962-.353s.673-.644.353-.962c-.229-.228-.643.045-1.126-.223a6.957,6.957,0,0,1-1.619-1.663c-.143-.29.074-.49-.02-.584s-.439-.095-.777.243-.337.683-.244.777.294-.123.584.02a6.934,6.934,0,0,1,1.663,1.619C641.116,591.505,640.842,591.919,641.071,592.148Z" transform="translate(-638.547 -588.308)" fill="#6fa5e6"/>
              <path id="Path_10220-3" data-name="Path 10220" d="M663.4,614.6a1.011,1.011,0,1,1,1.43,0A1.011,1.011,0,0,1,663.4,614.6Z" transform="translate(-660.702 -610.464)" fill="#6fa5e6"/>
            </g>
            <path id="Path_10221-3" data-name="Path 10221" d="M607.042,505.847a1.012,1.012,0,1,0-1.43,0A1.011,1.011,0,0,0,607.042,505.847Z" transform="translate(-589.645 -493.036)" fill="#6fa5e6"/>
            <path id="Path_10222-3" data-name="Path 10222" d="M552.728,532.362a1.012,1.012,0,1,0-1.431,0A1.012,1.012,0,0,0,552.728,532.362Z" transform="translate(-540.651 -516.954)" fill="#6fa5e6"/>
          </g>
          <path id="Path_10223-3" data-name="Path 10223" d="M602.761,565.271a1.012,1.012,0,1,0-1.431,0A1.012,1.012,0,0,0,602.761,565.271Z" transform="translate(-579.392 -540.667)" fill="#6fa5e6"/>
          <path id="Path_10224-3" data-name="Path 10224" d="M602.413,556.058a2.426,2.426,0,0,0-.272-.852c-.223-.38.5-.537.563-.262s-.118.537.3.8S602.413,556.058,602.413,556.058Z" transform="translate(-580.352 -532.784)" fill="#5492dd"/>
          <path id="Path_10225-3" data-name="Path 10225" d="M601.32,518.22s-.577.2-.694.485-.459.183-.6-.242.131-.242.341-.36a.74.74,0,0,0,.288-.406Z" transform="translate(-578.444 -499.309)" fill="#5492dd"/>
          <path id="Path_10226-3" data-name="Path 10226" d="M566.952,540.963s.406.329.707.224.367.393.157.59-.249-.092-.511-.223a1.447,1.447,0,0,0-.76-.013Z" transform="translate(-548.282 -520.297)" fill="#5492dd"/>
        </g>
        <path id="Path_11394" data-name="Path 11394" d="M861.607,1208.094a1.1,1.1,0,0,0,0,2.193A1.1,1.1,0,0,0,861.607,1208.094Z" transform="translate(-690.842 -1145.958)" fill="#3b73c4"/>
        <path id="Path_11395" data-name="Path 11395" d="M473.08,1119.288a1.1,1.1,0,0,0,0,2.193A1.1,1.1,0,0,0,473.08,1119.288Z" transform="translate(-447.743 -1061.72)" fill="#3b73c4"/>
        <path id="Path_11398" data-name="Path 11398" d="M1311.187,764.064a1.1,1.1,0,0,0,0,2.193A1.1,1.1,0,0,0,1311.187,764.064Z" transform="translate(-1242.744 -724.766)" fill="#3b73c4"/>
        <path id="Path_11399" data-name="Path 11399" d="M1788.52,347.785a1.1,1.1,0,0,0,0,2.193A1.1,1.1,0,0,0,1788.52,347.785Z" transform="translate(-1684.997 -196.36)" fill="#3b73c4"/>
        <path id="Path_11400" data-name="Path 11400" d="M1943.93,519.847a1.1,1.1,0,0,0,0,2.193A1.1,1.1,0,0,0,1943.93,519.847Z" transform="translate(-1816.937 -441.634)" fill="#3b73c4"/>
        <path id="Path_11403" data-name="Path 11403" d="M3908.765,630.855a1.1,1.1,0,0,0,0,2.193A1.1,1.1,0,0,0,3908.765,630.855Z" transform="translate(-3789.331 -489.946)" fill="#3b73c4"/>
        <path id="Path_11406" data-name="Path 11406" d="M4669.167,1468.962a1.1,1.1,0,0,0,0,2.193A1.1,1.1,0,0,0,4669.167,1468.962Z" transform="translate(-4428.013 -1393.409)" fill="#3b73c4"/>
        <path id="Path_11407" data-name="Path 11407" d="M4380.547,1563.318a1.1,1.1,0,0,0,0,2.192A1.1,1.1,0,0,0,4380.547,1563.318Z" transform="translate(-4154.237 -1482.912)" fill="#3b73c4"/>
        <path id="Path_11411" data-name="Path 11411" d="M445.328,2323.721a1.1,1.1,0,0,0,0,2.193A1.1,1.1,0,0,0,445.328,2323.721Z" transform="translate(-295.973 -2204.205)" fill="#3b73c4"/>
        <path id="Path_11412" data-name="Path 11412" d="M117.856,1996.248a1.1,1.1,0,0,0,0,2.193A1.1,1.1,0,0,0,117.856,1996.248Z" transform="translate(14.656 -1893.575)" fill="#3b73c4"/>
        <path id="Path_11413" data-name="Path 11413" d="M400.925,1807.535a1.1,1.1,0,0,0,0,2.193A1.1,1.1,0,0,0,400.925,1807.535Z" transform="translate(-253.854 -1714.568)" fill="#3b73c4"/>
        <path id="Path_11414" data-name="Path 11414" d="M517.483,3073.021a1.1,1.1,0,0,0,0,2.193A1.1,1.1,0,0,0,517.483,3073.021Z" transform="translate(-364.417 -2914.966)" fill="#3b73c4"/>
        <path id="Path_11415" data-name="Path 11415" d="M3042.906,569.8a1.1,1.1,0,0,0,0,2.193A1.1,1.1,0,0,0,3042.906,569.8Z" transform="translate(-2885.395 -540.494)" fill="#3b73c4"/>
        <path id="Path_11416" data-name="Path 11416" d="M3370.438,648.585a.47.47,0,0,0,0,.94A.47.47,0,0,0,3370.438,648.585Z" transform="translate(-3196.655 -615.226)" fill="#3b73c4"/>
        <path id="Path_11417" data-name="Path 11417" d="M4189.134,1345.428a.313.313,0,0,0,0,.627A.313.313,0,0,0,4189.134,1345.428Z" transform="translate(-3973.386 -1276.228)" fill="#3b73c4"/>
        <path id="Path_11418" data-name="Path 11418" d="M4305.691,1267.722a.314.314,0,0,0,0,.627A.314.314,0,0,0,4305.691,1267.722Z" transform="translate(-4083.949 -1202.519)" fill="#3b73c4"/>
        <path id="Path_11420" data-name="Path 11420" d="M4461.1,2061.426a.313.313,0,0,0,0,.626A.313.313,0,0,0,4461.1,2061.426Z" transform="translate(-4231.366 -1955.4)" fill="#3b73c4"/>
        <path id="Path_11421" data-name="Path 11421" d="M4322.343,1917.117a.313.313,0,0,0,0,.626A.313.313,0,0,0,4322.343,1917.117Z" transform="translate(-4099.744 -1818.514)" fill="#3b73c4"/>
        <path id="Path_11422" data-name="Path 11422" d="M4494.4,2527.658a.314.314,0,0,0,0,.627A.314.314,0,0,0,4494.4,2527.658Z" transform="translate(-4262.956 -2397.653)" fill="#3b73c4"/>
        <path id="Path_11423" data-name="Path 11423" d="M4572.109,2577.612a.313.313,0,0,0,0,.626A.313.313,0,0,0,4572.109,2577.612Z" transform="translate(-4336.664 -2445.037)" fill="#3b73c4"/>
        <path id="Path_11424" data-name="Path 11424" d="M4594.312,2905.084a.313.313,0,0,0,0,.626A.313.313,0,0,0,4594.312,2905.084Z" transform="translate(-4357.725 -2755.667)" fill="#3b73c4"/>
        <path id="Path_11425" data-name="Path 11425" d="M4771.924,2771.875a.313.313,0,0,0,0,.626A.313.313,0,0,0,4771.924,2771.875Z" transform="translate(-4526.202 -2629.309)" fill="#3b73c4"/>
        <path id="Path_11426" data-name="Path 11426" d="M653.542,1955.969a.313.313,0,0,0,0,.626A.313.313,0,0,0,653.542,1955.969Z" transform="translate(-494.196 -1855.367)" fill="#3b73c4"/>
        <path id="Path_11427" data-name="Path 11427" d="M536.984,2089.178a.313.313,0,0,0,0,.626A.313.313,0,0,0,536.984,2089.178Z" transform="translate(-383.633 -1981.725)" fill="#3b73c4"/>
        <path id="Path_11428" data-name="Path 11428" d="M337.17,2055.876a.313.313,0,0,0,0,.626A.313.313,0,0,0,337.17,2055.876Z" transform="translate(-194.096 -1950.136)" fill="#3b73c4"/>
        <path id="Path_11429" data-name="Path 11429" d="M181.76,2344.5a.314.314,0,0,0,0,.627A.314.314,0,0,0,181.76,2344.5Z" transform="translate(-46.679 -2223.911)" fill="#3b73c4"/>
        <path id="Path_11430" data-name="Path 11430" d="M414.875,2638.666a.313.313,0,0,0,0,.626A.313.313,0,0,0,414.875,2638.666Z" transform="translate(-267.805 -2502.951)" fill="#3b73c4"/>
        <path id="Path_11431" data-name="Path 11431" d="M281.666,3110.448a.314.314,0,0,0,0,.627A.314.314,0,0,0,281.666,3110.448Z" transform="translate(-141.447 -2950.468)" fill="#3b73c4"/>
        <path id="Path_11432" data-name="Path 11432" d="M109.6,3060.5a.314.314,0,0,0,0,.627A.314.314,0,0,0,109.6,3060.5Z" transform="translate(21.765 -2903.084)" fill="#3b73c4"/>
        <path id="Path_11433" data-name="Path 11433" d="M292.767,1095.66a.313.313,0,0,0,0,.626A.313.313,0,0,0,292.767,1095.66Z" transform="translate(-277.422 -1039.307)" fill="#3b73c4"/>
        <path id="Path_11434" data-name="Path 11434" d="M154.008,1278.823a.313.313,0,0,0,0,.626A.313.313,0,0,0,154.008,1278.823Z" transform="translate(-20.354 -1213.049)" fill="#3b73c4"/>
        <path id="Path_11435" data-name="Path 11435" d="M109.6,390.762a.313.313,0,0,0,0,.626A.313.313,0,0,0,109.6,390.762Z" transform="translate(-103.68 -370.664)" fill="#3b73c4"/>
        <path id="Path_11436" data-name="Path 11436" d="M697.945,1006.854a.313.313,0,0,0,0,.626A.313.313,0,0,0,697.945,1006.854Z" transform="translate(-661.76 -955.068)" fill="#3b73c4"/>
        <path id="Path_11437" data-name="Path 11437" d="M875.557,973.552a.313.313,0,0,0,0,.626A.313.313,0,0,0,875.557,973.552Z" transform="translate(-830.237 -923.479)" fill="#3b73c4"/>
        <path id="Path_11438" data-name="Path 11438" d="M870.007,1051.257a.313.313,0,0,0,0,.627A.313.313,0,0,0,870.007,1051.257Z" transform="translate(-824.973 -997.188)" fill="#3b73c4"/>
        <path id="Path_11439" data-name="Path 11439" d="M770.1,1334.326a.313.313,0,0,0,0,.626A.313.313,0,0,0,770.1,1334.326Z" transform="translate(-604.759 -1265.697)" fill="#3b73c4"/>
        <path id="Path_11440" data-name="Path 11440" d="M1974.532,612.777a.313.313,0,0,0,0,.626A.313.313,0,0,0,1974.532,612.777Z" transform="translate(-1872.689 -581.26)" fill="#3b73c4"/>
        <path id="Path_11441" data-name="Path 11441" d="M2118.842,540.622a.313.313,0,0,0,0,.626A.313.313,0,0,0,2118.842,540.622Z" transform="translate(-2009.576 -512.816)" fill="#3b73c4"/>
        <path id="Path_11442" data-name="Path 11442" d="M2113.292,313.057a.313.313,0,0,0,0,.626A.313.313,0,0,0,2113.292,313.057Z" transform="translate(-2004.311 -296.956)" fill="#3b73c4"/>
        <path id="Path_11443" data-name="Path 11443" d="M1547.153,790.389a.313.313,0,0,0,0,.626A.313.313,0,0,0,1547.153,790.389Z" transform="translate(-1467.291 -749.737)" fill="#3b73c4"/>
        <path id="Path_11444" data-name="Path 11444" d="M1114.223,585.026a.313.313,0,0,0,0,.626A.313.313,0,0,0,1114.223,585.026Z" transform="translate(-1056.628 -554.936)" fill="#3b73c4"/>
        <path id="Path_11445" data-name="Path 11445" d="M1419.494,252a.313.313,0,0,0,0,.626A.313.313,0,0,0,1419.494,252Z" transform="translate(-1346.198 -239.041)" fill="#3b73c4"/>
        <path id="Path_11446" data-name="Path 11446" d="M1175.278,152.1a.313.313,0,0,0,0,.626A.313.313,0,0,0,1175.278,152.1Z" transform="translate(-1114.543 -144.273)" fill="#3b73c4"/>
        <path id="Path_11447" data-name="Path 11447" d="M2573.973,490.669a.313.313,0,0,0,0,.626A.313.313,0,0,0,2573.973,490.669Z" transform="translate(-2441.298 -465.432)" fill="#3b73c4"/>
        <path id="Path_11448" data-name="Path 11448" d="M2518.469,207.6a.313.313,0,0,0,0,.626A.313.313,0,0,0,2518.469,207.6Z" transform="translate(-2388.65 -196.922)" fill="#3b73c4"/>
        <path id="Path_11449" data-name="Path 11449" d="M2895.9,207.6a.313.313,0,0,0,0,.626A.313.313,0,0,0,2895.9,207.6Z" transform="translate(-2746.663 -196.922)" fill="#3b73c4"/>
        <path id="Path_11450" data-name="Path 11450" d="M2890.345,357.46a.313.313,0,0,0,0,.626A.313.313,0,0,0,2890.345,357.46Z" transform="translate(-2741.398 -339.075)" fill="#3b73c4"/>
        <path id="Path_11451" data-name="Path 11451" d="M2934.748,374.111a.313.313,0,0,0,0,.626A.313.313,0,0,0,2934.748,374.111Z" transform="translate(-2783.518 -354.869)" fill="#3b73c4"/>
        <path id="Path_11452" data-name="Path 11452" d="M3117.91,146.545a.313.313,0,0,0,0,.626A.313.313,0,0,0,3117.91,146.545Z" transform="translate(-2957.26 -139.008)" fill="#3b73c4"/>
        <path id="Path_11453" data-name="Path 11453" d="M3528.639,457.366a.313.313,0,0,0,0,.626A.313.313,0,0,0,3528.639,457.366Z" transform="translate(-3346.863 -433.842)" fill="#3b73c4"/>
        <path id="Path_11454" data-name="Path 11454" d="M3178.964,684.933a.313.313,0,0,0,0,.626A.313.313,0,0,0,3178.964,684.933Z" transform="translate(-3015.173 -649.705)" fill="#3b73c4"/>
        <path id="Path_11455" data-name="Path 11455" d="M3845.01,1034.606a.313.313,0,0,0,0,.626A.313.313,0,0,0,3845.01,1034.606Z" transform="translate(-3646.962 -981.393)" fill="#3b73c4"/>
        <path id="Path_11456" data-name="Path 11456" d="M3811.708,851.444a.313.313,0,0,0,0,.626A.313.313,0,0,0,3811.708,851.444Z" transform="translate(-3615.372 -807.651)" fill="#3b73c4"/>
        <path id="Path_11457" data-name="Path 11457" d="M3678.5,906.948a.313.313,0,0,0,0,.626A.313.313,0,0,0,3678.5,906.948Z" transform="translate(-3489.014 -860.301)" fill="#3b73c4"/>
        <path id="Path_11458" data-name="Path 11458" d="M4305.691,696.033a.313.313,0,0,0,0,.626A.313.313,0,0,0,4305.691,696.033Z" transform="translate(-4083.949 -660.234)" fill="#3b73c4"/>
        <path id="Path_11459" data-name="Path 11459" d="M4194.684,207.6a.313.313,0,0,0,0,.626A.313.313,0,0,0,4194.684,207.6Z" transform="translate(-3978.651 -196.922)" fill="#3b73c4"/>
        <path id="Path_11460" data-name="Path 11460" d="M4672.017,229.8a.313.313,0,0,0,0,.626A.313.313,0,0,0,4672.017,229.8Z" transform="translate(-4431.434 -217.982)" fill="#3b73c4"/>
        <path id="Path_11461" data-name="Path 11461" d="M4744.172,518.421a.313.313,0,0,0,0,.626A.313.313,0,0,0,4744.172,518.421Z" transform="translate(-4499.877 -491.757)" fill="#3b73c4"/>
        <path id="Path_11462" data-name="Path 11462" d="M4555.458,696.033a.313.313,0,0,0,0,.626A.313.313,0,0,0,4555.458,696.033Z" transform="translate(-4320.87 -660.234)" fill="#3b73c4"/>
      </g>
    </g>
    <text id="Page_Title" data-name="Page Title" transform="translate(32 162)" fill="#fff" font-size="16" font-family="Rubik-Regular, Rubik"><tspan x="0" y="0">Banner 01 Design Check</tspan></text>
    <text id="Page_Title-2" data-name="Page Title" transform="translate(32 208)" fill="#fff" font-size="12" font-family="Rubik-Medium, Rubik" font-weight="500"><tspan x="0" y="0">BOOK NOW</tspan></text>
    <text id="Page_Title-3" data-name="Page Title" transform="translate(32 141)" fill="#c9e7f9" font-size="12" font-family="Rubik-Regular, Rubik"><tspan x="0" y="0">Get COVID tests done &amp; stay safe</tspan></text>
    <text id="Page_Title-4" data-name="Page Title" transform="translate(118 207)" fill="#c9e7f9" font-size="10" font-family="Rubik-Regular, Rubik"><tspan x="0" y="0">Get your covid test result in 1 hour</tspan></text>
    <path id="back" d="M25.65,15.943v0a.7.7,0,0,0-.216-.508h0L21.2,11.195l0,0a.706.706,0,1,0-.949,1.045l3.7,3.7L20.2,19.691h0a.706.706,0,0,0,1,1h0l4.238-4.238h0a.7.7,0,0,0,.216-.508Z" transform="translate(83.405 188.217)" fill="#fff"/>
  </g>
</svg>
