<svg xmlns="http://www.w3.org/2000/svg" width="55.185" height="18.937" viewBox="0 0 55.185 18.937">
  <g id="Group_3610" data-name="Group 3610" transform="translate(-69.184 -186.204)">
    <path id="Path_10161" data-name="Path 10161" d="M89.938,186.719l-7.951-.027c-3.213-.011-6.475-.319-9.221,1.729a8.911,8.911,0,0,0,5.258,16.084c.885.013,1.77.006,2.655.009l9.234.032a.872.872,0,0,0,.694-.3.884.884,0,0,0,.259-.653l.021-13.913q0-1,0-2.009A.967.967,0,0,0,89.938,186.719ZM74.576,201.679a7.01,7.01,0,0,1,3.652-13.094c1.071,0,2.142.007,3.213.011l7.543.026q-.01,6.482-.02,12.963,0,.527,0,1.054l-6.382-.022C79.991,202.607,76.907,203.019,74.576,201.679Z" transform="translate(0)" fill="#0888d1"/>
    <path id="Path_10162" data-name="Path 10162" d="M123.811,216.038l-3.021-.01h-.283q0-1.1.008-2.2,0-.552,0-1.1a.23.23,0,0,0-.226-.228l-1.877-.006a.23.23,0,0,0-.228.226q-.005,1.51-.01,3.021,0,.141,0,.283l-2.2-.008-1.1,0a.23.23,0,0,0-.228.226q0,.939-.006,1.877a.227.227,0,0,0,.226.228l3.021.01h.283q0,1.1-.008,2.2,0,.552,0,1.1a.23.23,0,0,0,.226.228l1.877.006a.227.227,0,0,0,.228-.226q.005-1.51.01-3.021v-.283l2.2.008,1.1,0a.23.23,0,0,0,.228-.226q0-.939.006-1.877A.23.23,0,0,0,123.811,216.038Z" transform="translate(-38.237 -21.72)" fill="#0888d1"/>
    <path id="Path_10164" data-name="Path 10164" d="M246.594,192.433a8.189,8.189,0,0,0-3.545-4.36,10.691,10.691,0,0,0-5.7-1.118l-7-.024c-4.5-.015-9.006-.109-13.5-.046-.088,0-.175,0-.263,0a.967.967,0,0,0-.953.953q-.024,6.956-.048,13.913,0,1-.007,2.009a.871.871,0,0,0,.3.7.886.886,0,0,0,.648.255l11.716.04,7.693.026a27.559,27.559,0,0,0,4.354-.107,8.144,8.144,0,0,0,6.719-7.978A12.252,12.252,0,0,0,246.594,192.433Z" transform="translate(-123.151 -0.163)" fill="#4fb82a" stroke="rgba(0,0,0,0)" stroke-width="1"/>
    <text id="SAFE" transform="translate(116.846 198.196)" fill="#fff" font-size="8" font-family="Rubik-Regular, Rubik" letter-spacing="0.03em"><tspan x="-20" y="0">SAFE</tspan></text>
  </g>
</svg>
