<svg xmlns="http://www.w3.org/2000/svg" width="22.983" height="29.401" viewBox="0 0 22.983 29.401">
  <g id="Chat_Window" data-name="Chat Window" transform="translate(-63.228 -1205.5)">
    <path id="Subtraction_24" data-name="Subtraction 24" d="M5097.25-3409h-8.858a8.462,8.462,0,0,0-.7-1.5h8.812V-3423H5080v8.992a8.034,8.034,0,0,0-1.5.443v-10.184a.785.785,0,0,1,.218-.535.781.781,0,0,1,.532-.216h18a.781.781,0,0,1,.532.216.786.786,0,0,1,.218.535v14a.779.779,0,0,1-.217.532A.778.778,0,0,1,5097.25-3409Zm-4.25-7h-1.5v-1.5h1.5v1.5Zm-4,0h-1.5v-1.5h1.5v1.5Zm-4,0h-1.5v-1.5h1.5v1.5Z" transform="translate(-5011.789 4630)" fill="#0888d1"/>
    <path id="Subtraction_25" data-name="Subtraction 25" d="M5079.668-3407.5H5078.2a6.67,6.67,0,0,1,1.921-4.58,6.508,6.508,0,0,1,4.645-1.887,6.51,6.51,0,0,1,4.646,1.887,6.671,6.671,0,0,1,1.921,4.579h-1.467a4.939,4.939,0,0,0-1.492-3.468,4.872,4.872,0,0,0-3.607-1.532,4.859,4.859,0,0,0-3.6,1.528,4.941,4.941,0,0,0-1.5,3.472Zm5.1-7.5a4.905,4.905,0,0,1-4.9-4.9,4.905,4.905,0,0,1,4.9-4.9,4.906,4.906,0,0,1,4.9,4.9A4.906,4.906,0,0,1,5084.766-3415Zm0-8.333a3.436,3.436,0,0,0-3.433,3.432,3.437,3.437,0,0,0,3.433,3.432,3.437,3.437,0,0,0,3.434-3.432A3.437,3.437,0,0,0,5084.766-3423.333Z" transform="translate(-5014.973 4642.4)" fill="#0888d1"/>
    <path id="Path_6840" data-name="Path 6840" d="M3262.283,14219.8a7.441,7.441,0,0,1,.79,3.378,7.657,7.657,0,0,1-.79,3.377l-.9-.654a6.549,6.549,0,0,0,.6-2.723,6.357,6.357,0,0,0-.6-2.725Zm-1.8,1.308a5.449,5.449,0,0,1,0,4.14l-.915-.653a4.4,4.4,0,0,0,0-2.832Z" transform="translate(2129.99 -13221.456) rotate(21)" fill="#4fb82a"/>
    <path id="Subtraction_27" data-name="Subtraction 27" d="M5093-3416h-1.5v-1.5h1.5v1.5Zm-4,0h-1.5v-1.5h1.5v1.5Zm-4,0h-1.5v-1.5h1.5v1.5Z" transform="translate(-5011.789 4629.901)" fill="#4fb82a"/>
  </g>
</svg>
