<svg xmlns="http://www.w3.org/2000/svg" width="27.021" height="23.291" viewBox="0 0 27.021 23.291">
  <g id="Consultation" transform="translate(-49.799 -78.752)">
    <path id="Union_117" data-name="Union 117" d="M4.037,12.809H1.2a1.2,1.2,0,0,1-1.2-1.2V1.2A1.2,1.2,0,0,1,1.2,0H16.267a1.2,1.2,0,0,1,1.2,1.2v9.281H11.644v2.327H7.16L4.037,17.041Z" transform="translate(52.366 80.501)" fill="rgba(0,144,226,0.21)"/>
    <path id="Union_116" data-name="Union 116" d="M22.549,22.982l-1.877-1.877h-5.41A1.81,1.81,0,0,1,13.449,19.3V15.45H9.735L6.577,18.617A1.332,1.332,0,0,1,5.661,19a1.321,1.321,0,0,1-1.317-1.312V15.45H2.537A2.542,2.542,0,0,1,0,12.914V2.537A2.542,2.542,0,0,1,2.537,0H18.681a2.54,2.54,0,0,1,2.533,2.537v8.552h3.995A1.813,1.813,0,0,1,27.021,12.9v6.4a1.813,1.813,0,0,1-1.813,1.806h-.869v1.136a1.044,1.044,0,0,1-.644.972,1.14,1.14,0,0,1-.4.077A1.034,1.034,0,0,1,22.549,22.982ZM14.728,12.9v6.4a.528.528,0,0,0,.534.525h5.675a.629.629,0,0,1,.455.192l1.642,1.642.03-1.2a.638.638,0,0,1,.64-.635h1.5a.526.526,0,0,0,.53-.525V12.9a.531.531,0,0,0-.53-.527H15.262A.533.533,0,0,0,14.728,12.9ZM1.284,2.537V12.914a1.254,1.254,0,0,0,1.258,1.251H4.986a.644.644,0,0,1,.64.644v2.88c0,.012,0,.023.019.023s.012,0,.021-.007L9.018,14.36a.642.642,0,0,1,.45-.194h3.981V12.9a1.81,1.81,0,0,1,1.813-1.806h4.677V2.537a1.264,1.264,0,0,0-1.258-1.258H2.542A1.263,1.263,0,0,0,1.284,2.537ZM16.691,18.132a.641.641,0,1,1,0-1.282h7.09a.641.641,0,0,1,0,1.282Zm0-2.786a.642.642,0,1,1,0-1.284h7.09a.642.642,0,0,1,0,1.284ZM9.555,12.68a1.112,1.112,0,0,1-1.106-1.106V9.887H6.762A1.109,1.109,0,0,1,5.656,8.781V6.673A1.107,1.107,0,0,1,6.762,5.562H8.449V3.878A1.11,1.11,0,0,1,9.555,2.769h2.1a1.116,1.116,0,0,1,1.115,1.108V5.562h1.678a1.114,1.114,0,0,1,1.115,1.111V8.781a1.116,1.116,0,0,1-1.115,1.106H12.774v1.687a1.119,1.119,0,0,1-1.115,1.106ZM6.931,8.606H9.084a.644.644,0,0,1,.64.642V11.4H11.49V9.248a.645.645,0,0,1,.644-.642h2.149V6.846H12.134A.643.643,0,0,1,11.49,6.2V4.053H9.723V6.2a.642.642,0,0,1-.64.642H6.931Z" transform="translate(49.799 78.752)" fill="#505b6e"/>
  </g>
</svg>
