<svg xmlns="http://www.w3.org/2000/svg" width="21.472" height="21.472" viewBox="0 0 21.472 21.472">
  <g id="Group_3084" data-name="Group 3084" transform="translate(-59.558 -113.353)">
    <path id="Path_9376" data-name="Path 9376" d="M10.736,0A10.736,10.736,0,1,1,0,10.736,10.736,10.736,0,0,1,10.736,0Z" transform="translate(59.558 113.353)" fill="rgba(255,255,255,0.32)"/>
    <g id="Group_3083" data-name="Group 3083" transform="translate(62.08 116.655)">
      <path id="Path_9348" data-name="Path 9348" d="M107.807,165.166l-.024-.012A.136.136,0,0,0,107.807,165.166Z" transform="translate(-102.605 -160.186)" fill="none"/>
      <path id="Path_9349" data-name="Path 9349" d="M142.286,193.723l-.082-.085C142.233,193.669,142.259,193.7,142.286,193.723Z" transform="translate(-131.531 -184.122)" fill="none"/>
      <path id="Path_9350" data-name="Path 9350" d="M108.542,196.745v0Z" transform="translate(-103.242 -186.73)" fill="none"/>
      <path id="Path_9351" data-name="Path 9351" d="M115.815,189.991a.06.06,0,0,1,.019.027.059.059,0,0,1,.019-.027,24.959,24.959,0,0,0,2.046-1.837,2.422,2.422,0,0,1-.138-.466q-.074.072-.152.14a3.371,3.371,0,0,1-.519.379,2.513,2.513,0,0,1-.5.225,2.374,2.374,0,0,1-.487.1,2.42,2.42,0,0,1-.621-.018,2.346,2.346,0,0,1-.49-.133,2.67,2.67,0,0,1-.5-.266,3.781,3.781,0,0,1-.519-.423,2.409,2.409,0,0,1-.152.5A18.855,18.855,0,0,0,115.815,189.991Z" transform="translate(-107.678 -179.123)" fill="#c69a81"/>
      <path id="Path_9352" data-name="Path 9352" d="M108.352,196.77c-.027.112-.172.465.46,1.36a28.39,28.39,0,0,1,1.811,3.022c.124-.8.225-1.428.265-1.65a.161.161,0,0,1-.068-.068,2.694,2.694,0,0,1-.386-.96.913.913,0,0,0-.316.63c.054.573-1.689-1.461-1.761-2.343h0Z" transform="translate(-103.056 -186.747)" fill="#76a2cf"/>
      <path id="Path_9353" data-name="Path 9353" d="M102.6,199.439l-.079.053.058-.02Z" transform="translate(-98.185 -188.997)" fill="#76a2cf"/>
      <path id="Path_9354" data-name="Path 9354" d="M128.832,200.385c.04.218.138.829.259,1.61a28.262,28.262,0,0,1,1.712-2.982,2.052,2.052,0,0,0,.474-1.2c-.243.945-1.783,2.714-1.732,2.175a.831.831,0,0,0-.263-.57,3.217,3.217,0,0,1-.383.9A.161.161,0,0,1,128.832,200.385Z" transform="translate(-120.294 -187.63)" fill="#76a2cf"/>
      <path id="Path_9355" data-name="Path 9355" d="M107.681,159.68a2.347,2.347,0,0,0,.49.133,2.42,2.42,0,0,0,.621.018,2.374,2.374,0,0,0,.487-.1,2.514,2.514,0,0,0,.5-.225,3.373,3.373,0,0,0,.519-.379q.077-.068.152-.14h0c.692-.669.687-2.358.854-2.239.382.257.627-.507.675-.961.04-.376-.1-.568-.252-.515-.033.163-.285.1-.384.261s-.057-.581-.2-.792-.222-.582-.524-.639-2.508.188-3.848-.524c-.466-.248-.543.614-.8.994s-.072,1.083-.23.943a.794.794,0,0,0-.171-.114.137.137,0,0,1-.024-.012.4.4,0,0,1-.175-.12c-.152-.042-.282.149-.243.517.048.454.292,1.218.675.961.167-.119.161,1.57.854,2.239l.006.006a3.778,3.778,0,0,0,.519.423A2.672,2.672,0,0,0,107.681,159.68Z" transform="translate(-100.365 -150.42)" fill="#d1a385"/>
      <path id="Path_9356" data-name="Path 9356" d="M105.577,139l.024.012a.793.793,0,0,1,.171.114c.158.141-.029-.563.23-.943s.336-1.242.8-.994c1.339.713,3.546.468,3.848.524s.38.428.524.639.1.957.2.792.352-.1.384-.261l0,0a3.878,3.878,0,0,0-.228-3.313,3.609,3.609,0,0,0-3.873-1.436c-1.366.32-1.516.944-1.588,1.014a1.778,1.778,0,0,0-.58.463c-.675,1.111-.125,3.212-.095,3.269l0,0A.4.4,0,0,0,105.577,139Z" transform="translate(-100.4 -134.034)" fill="#534d46"/>
      <path id="Path_9357" data-name="Path 9357" d="M123.7,213.938a.3.3,0,0,1-.114.022l-.183.012v.005l-.041,0-.042,0v-.005l-.183-.012a.3.3,0,0,1-.114-.022l-.015-.01c-.04.221-.141.849-.265,1.65a5.86,5.86,0,0,1,.618,1.639,6.249,6.249,0,0,1,.612-1.678c-.121-.782-.22-1.393-.259-1.61Z" transform="translate(-115.179 -201.173)" fill="#3a63ad"/>
      <path id="Path_9358" data-name="Path 9358" d="M121.948,204.308a.161.161,0,0,0,.068.068l.015.01a.3.3,0,0,0,.114.022l.183.012v.005l.042,0,.041,0v-.005l.183-.012a.3.3,0,0,0,.114-.022l.015-.01a.161.161,0,0,0,.068-.068,3.218,3.218,0,0,0,.383-.9c-.31-.357-.785-.684-.833-.847-.045.154-.471.454-.779.788A2.694,2.694,0,0,0,121.948,204.308Z" transform="translate(-114.184 -191.62)" fill="#3c66bc"/>
      <path id="Path_9359" data-name="Path 9359" d="M109.051,190.809a3.974,3.974,0,0,1-.343.379.806.806,0,0,0-.16.307v0c.072.882,1.816,2.916,1.761,2.343a.913.913,0,0,1,.316-.63c.308-.334.735-.634.779-.788.047.163.523.49.833.847a.831.831,0,0,1,.263.57c-.051.539,1.489-1.23,1.732-2.175,0-.081-.016-.132-.015-.159a.494.494,0,0,0-.042-.236,1.951,1.951,0,0,0-.158-.169l-.016-.017c-.026-.027-.053-.054-.082-.085a2,2,0,0,1-.161-.191.084.084,0,0,0-.01-.014h0a2.678,2.678,0,0,1-.175-.259c-.024-.041-.057-.046-.105-.019a24.957,24.957,0,0,1-2.046,1.837.059.059,0,0,0-.019.027.06.06,0,0,0-.019-.027,18.857,18.857,0,0,1-2-1.8c-.078-.062-.123-.07-.156-.015a2.7,2.7,0,0,1-.16.239h0Z" transform="translate(-103.248 -181.483)" fill="#c3dff7"/>
      <path id="Path_9360" data-name="Path 9360" d="M98.052,224.73l-.007-.059c-.124-1.118-.192-1.748-.2-1.874l-.031,0a.082.082,0,0,1-.088-.074c-.077-.723-.44-1.829-1.364-1.753-.905.074-.892,1.558-.874,1.933a.086.086,0,0,1-.08.09l-.035,0h0c.007.09.027.438.059,1.036a10.663,10.663,0,0,0,2.639.967A2.554,2.554,0,0,0,98.052,224.73Z" transform="translate(-92.175 -207.089)" fill="#f5f5f5"/>
      <path id="Path_9361" data-name="Path 9361" d="M87.154,205.087a.086.086,0,0,1-.091-.081,4.187,4.187,0,0,1,.1-1.167c.185-.737.571-1,.908-1.07a.133.133,0,0,1,0-.019,8.853,8.853,0,0,1,.127-1.8c-.25-.043-.411-.094-.338-.149.225-.168.243-.518.562-1.089.012-.022.026-.041.039-.062l-.058.02a18.791,18.791,0,0,0-2.683,1.011.033.033,0,0,0,0,.011c.094-.05.171-.068.2-.022a7.423,7.423,0,0,1,.707,3.088c.045.407.088,1.262.108,2.037q.233.142.474.271c-.03-.561-.049-.888-.056-.974Z" transform="translate(-84.06 -189.171)" fill="#f5f5f5"/>
      <path id="Path_9362" data-name="Path 9362" d="M103.668,208.174s-.607-.04-1.111-.1a7.7,7.7,0,0,0-.117,1.032Z" transform="translate(-98.114 -196.25)" fill="#f5f5f5"/>
      <path id="Path_9363" data-name="Path 9363" d="M105.52,217.92a6.341,6.341,0,0,0-.824-.879,19.455,19.455,0,0,1-2.327-2.269c-.01.216-.015.44-.009.682h0c.927.027,1.437,1.006,1.542,2.036a.082.082,0,0,1-.076.09h-.01c.01.125.078.755.2,1.871l.007.062a2.588,2.588,0,0,1,.019.3,10.741,10.741,0,0,0,1.193.184h1.025c.011-.537.022-.957.031-1.229A10.43,10.43,0,0,1,105.52,217.92Z" transform="translate(-98.046 -201.882)" fill="#f5f5f5"/>
      <path id="Path_9364" data-name="Path 9364" d="M77.211,205.894c-.032-.046-.108-.028-.2.022a3.844,3.844,0,0,0-.65.515,5.042,5.042,0,0,0-1.006,2.288,10.785,10.785,0,0,0,2.675,2.3c-.02-.775-.064-1.63-.108-2.037A7.423,7.423,0,0,0,77.211,205.894Z" transform="translate(-75.352 -194.399)" fill="#e2e2e2"/>
      <path id="Path_9365" data-name="Path 9365" d="M133.232,200.353c.033-.047.113-.027.211.026,0-.009,0-.015,0-.015a23.269,23.269,0,0,0-2.893-1.085l-.016-.005a3.29,3.29,0,0,1,.322.892.725.725,0,0,0,.214.318c.052.038-.014.075-.144.109a10.063,10.063,0,0,1-.094,2.418,6.327,6.327,0,0,0-.064.637.147.147,0,0,1-.008.041.523.523,0,1,1-.3-.052,6.477,6.477,0,0,1,.066-.665,9.55,9.55,0,0,0,.083-2.319c-.526.079-1.3.13-1.3.13l1.25.943a19.926,19.926,0,0,1-2.347,2.291,6.352,6.352,0,0,0-.824.879,4.511,4.511,0,0,0-.538.857l-.006-.006c-.009.272-.019.692-.031,1.229h1.064a10.667,10.667,0,0,0,4.536-1.511c.02-.772.063-1.62.108-2.025A7.42,7.42,0,0,1,133.232,200.353Z" transform="translate(-118.6 -188.858)" fill="#ededed"/>
      <path id="Path_9366" data-name="Path 9366" d="M99.587,197.214c-.319.571-.336.921-.562,1.089-.073.055.088.105.338.149a4.2,4.2,0,0,1,.706-1.773,1.974,1.974,0,0,0-.421.441l-.021.033C99.613,197.173,99.6,197.193,99.587,197.214Z" transform="translate(-95.231 -186.677)" fill="#e0e0e0"/>
      <path id="Path_9367" data-name="Path 9367" d="M152.342,205.181a.726.726,0,0,1-.214-.318c.03.14.053.283.07.426C152.328,205.256,152.394,205.219,152.342,205.181Z" transform="translate(-139.87 -193.555)" fill="#e0e0e0"/>
      <path id="Path_9368" data-name="Path 9368" d="M109.038,194.908l0,0a.494.494,0,0,1,.042.236c0,.027.011.078.015.159a2.052,2.052,0,0,1-.474,1.2,28.265,28.265,0,0,0-1.712,2.982,6.249,6.249,0,0,0-.612,1.678,5.859,5.859,0,0,0-.618-1.639,28.388,28.388,0,0,0-1.811-3.022c-.631-.9-.486-1.248-.46-1.36l0-.008v0a.806.806,0,0,1,.16-.307h0a3.574,3.574,0,0,0-1.018,2.115c.5.064,1.112.1,1.112.1l-1.229.927c0,.013,0,.026,0,.038a19.455,19.455,0,0,0,2.327,2.269,6.342,6.342,0,0,1,.824.879,10.433,10.433,0,0,0,.773.851l.006.006a4.512,4.512,0,0,1,.538-.857,6.353,6.353,0,0,1,.824-.879,19.925,19.925,0,0,0,2.347-2.292l-1.25-.943s.77-.051,1.3-.13A2.644,2.644,0,0,0,109.038,194.908Z" transform="translate(-98.106 -185.117)" fill="#e0e0e0"/>
      <path id="Path_9369" data-name="Path 9369" d="M141.14,192.208a2,2,0,0,0,.161.191l.082.085.016.017a1.951,1.951,0,0,1,.158.169l0,0a2.644,2.644,0,0,1,1.077,2,9.549,9.549,0,0,1-.083,2.319,6.474,6.474,0,0,0-.066.665.509.509,0,0,1,.065-.007.517.517,0,0,1,.235.058.148.148,0,0,0,.008-.041,6.327,6.327,0,0,1,.064-.637,10.063,10.063,0,0,0,.094-2.418c-.017-.144-.04-.286-.07-.426a3.289,3.289,0,0,0-.322-.892,2.431,2.431,0,0,0-1.288-1.123.139.139,0,0,0-.144.017h0A.084.084,0,0,1,141.14,192.208Z" transform="translate(-130.628 -182.883)"/>
      <path id="Path_9370" data-name="Path 9370" d="M147.231,226.566a.452.452,0,1,0,.065-.007A.506.506,0,0,0,147.231,226.566Zm.429.517a.365.365,0,1,1-.365-.364A.365.365,0,0,1,147.66,227.082Z" transform="translate(-135.37 -211.787)" fill="#a3a3a3"/>
      <path id="Path_9371" data-name="Path 9371" d="M148.131,227.553a.365.365,0,1,0,.364.364A.365.365,0,0,0,148.131,227.553Z" transform="translate(-136.205 -212.622)" fill="#fff"/>
      <path id="Path_9372" data-name="Path 9372" d="M95.256,194.667a8.854,8.854,0,0,0-.127,1.8.134.134,0,0,0,0,.019c-.337.075-.723.333-.908,1.07a4.187,4.187,0,0,0-.1,1.167.086.086,0,0,0,.091.081h0l.1-.008.035,0a.086.086,0,0,0,.08-.09c-.018-.375-.031-1.859.874-1.933.923-.075,1.286,1.031,1.364,1.753a.082.082,0,0,0,.088.074l.031,0,.1-.008h.01a.082.082,0,0,0,.076-.09c-.106-1.029-.616-2.008-1.542-2.036h0c-.005-.242,0-.467.009-.682,0-.013,0-.026,0-.038a7.7,7.7,0,0,1,.117-1.032,3.574,3.574,0,0,1,1.018-2.115h0a3.976,3.976,0,0,0,.343-.379l.025-.037h0a.22.22,0,0,0-.146.02,1.973,1.973,0,0,0-.842.692A4.2,4.2,0,0,0,95.256,194.667Z" transform="translate(-91.124 -182.892)"/>
      <path id="Path_9373" data-name="Path 9373" d="M94.831,233.677l-.1.008h0c.007.086.026.413.056.974l.106.054c-.032-.6-.052-.946-.059-1.036Z" transform="translate(-91.635 -217.769)" fill="#e5e5e5"/>
      <path id="Path_9374" data-name="Path 9374" d="M111.164,234.3l-.007-.062c-.124-1.116-.192-1.746-.2-1.871l-.1.008c.01.126.078.757.2,1.874l.007.059a2.554,2.554,0,0,1,.018.27l.1.024A2.59,2.59,0,0,0,111.164,234.3Z" transform="translate(-105.184 -216.666)" fill="#e5e5e5"/>
      <path id="Path_9375" data-name="Path 9375" d="M162.917,205.919c-.1-.053-.178-.074-.211-.026a7.42,7.42,0,0,0-.707,3.088c-.045.4-.087,1.254-.108,2.025a10.787,10.787,0,0,0,2.67-2.3,5.011,5.011,0,0,0-1-2.272A3.92,3.92,0,0,0,162.917,205.919Z" transform="translate(-148.075 -194.398)" fill="#e2e2e2"/>
    </g>
  </g>
</svg>
