<svg xmlns="http://www.w3.org/2000/svg" width="86" height="86" viewBox="0 0 86 86">
  <g id="user_blank_pic" transform="translate(-0.504 -0.504)">
    <circle id="Ellipse_585" data-name="Ellipse 585" cx="43" cy="43" r="43" transform="translate(0.504 0.504)" fill="#e8e8e8"/>
    <path id="Path_11884" data-name="Path 11884" d="M96.3,104.615a17.795,17.795,0,1,0-19.687,0h0a0,0,0,0,1,0,0A34.146,34.146,0,0,0,53.344,129.09h0c.469.565.955,1.117,1.452,1.658.12.132.246.258.369.387.383.406.77.807,1.167,1.2.165.162.332.317.5.476.368.35.74.7,1.12,1.032.188.166.38.331.569.494q.558.478,1.133.937c.2.162.4.32.608.479q.583.449,1.182.875c.206.147.409.3.618.44.421.291.85.569,1.281.845.194.123.384.251.58.372.5.307,1.005.6,1.517.888.135.076.267.157.4.231q.992.543,2.015,1.037l.05.022q.976.467,1.981.885c.208.087.42.165.629.248.483.193.967.383,1.459.558.261.093.525.178.787.267.448.151.9.3,1.352.433.288.086.577.166.867.246q.658.182,1.327.346.452.109.908.209c.446.1.894.187,1.345.27.305.056.609.114.918.163.466.076.934.139,1.4.2.3.039.592.082.89.113.519.056,1.042.1,1.566.133.254.018.5.044.758.058.781.044,1.566.07,2.358.07s1.576-.025,2.358-.067c.254-.013.506-.04.758-.058.525-.037,1.048-.077,1.566-.133.3-.033.593-.074.89-.113.47-.061.939-.125,1.4-.2.307-.05.612-.107.918-.163.451-.083.9-.172,1.345-.27q.456-.1.908-.209.667-.162,1.327-.346c.289-.08.58-.16.867-.246.455-.136.9-.283,1.352-.433.262-.089.528-.173.787-.267.491-.176.976-.365,1.459-.558.209-.083.421-.162.629-.248.666-.279,1.324-.571,1.972-.882l.059-.027q1.023-.492,2.015-1.037c.136-.074.268-.156.4-.231.512-.288,1.019-.581,1.517-.888.2-.12.387-.248.58-.372.432-.276.86-.556,1.281-.845.208-.144.412-.292.618-.44q.6-.429,1.182-.875c.2-.157.406-.317.608-.479q.574-.458,1.133-.937c.191-.163.383-.328.569-.494.38-.337.752-.682,1.12-1.032.166-.159.335-.316.5-.476q.6-.587,1.167-1.2c.122-.131.248-.257.369-.387.5-.541.983-1.093,1.452-1.658h0A34.141,34.141,0,0,0,96.3,104.615Z" transform="translate(-43.317 -58.515)" fill="#c7c7c7"/>
  </g>
</svg>
