<svg xmlns="http://www.w3.org/2000/svg" width="13.09" height="13.024" viewBox="0 0 13.09 13.024">
  <path id="Path_1963" data-name="Path 1963" d="M6.277,1.179a.885.885,0,0,1,1.6,0l1.32,2.8a.885.885,0,0,0,.665.5l3.009.467a.885.885,0,0,1,.5,1.492L11.143,8.725a.885.885,0,0,0-.239.758l.513,3.185a.885.885,0,0,1-1.3.916L7.5,12.147a.885.885,0,0,0-.853,0L4.039,13.584a.885.885,0,0,1-1.3-.916l.513-3.185a.885.885,0,0,0-.239-.758L.784,6.432a.885.885,0,0,1,.5-1.492l3.009-.467a.885.885,0,0,0,.665-.5Z" transform="translate(-0.533 -0.672)" fill="#ffa800"/>
</svg>
