<svg xmlns="http://www.w3.org/2000/svg" width="21.256" height="18.918" viewBox="0 0 21.256 18.918">
  <g id="Health_Record_Icon" data-name="Health Record Icon" transform="translate(-36.746 -870.77)">
    <path id="Subtraction_39" data-name="Subtraction 39" d="M17964,18253.813h-16a2,2,0,0,1-2-2v-14h5.385l2.033,2.445,10.586.418v13.139Z" transform="translate(-17906 -17366.846)" fill="#c9e7f9"/>
    <path id="Subtraction_40" data-name="Subtraction 40" d="M17967.029,18256.279h-20.109a.558.558,0,0,1-.371-.156.547.547,0,0,1-.152-.361v-17.879a.517.517,0,0,1,.523-.521h8.027l2.236,2.24h9.846a.564.564,0,0,1,.367.146.576.576,0,0,1,.15.367v15.646a.559.559,0,0,1-.146.361A.582.582,0,0,1,17967.029,18256.279Zm-19.592-17.684v16.645h19.074v-14.6h-9.75l-2.053-2.057-.115-.119-.064-.061h-6.895v.2h-.2Z" transform="translate(-17909.65 -17366.592)" fill="#515c6f"/>
    <path id="Path_11827" data-name="Path 11827" d="M146.47,127.288v-1.933a.786.786,0,0,0-.785-.785h-1.777v-1.777a.786.786,0,0,0-.785-.785H141.19a.786.786,0,0,0-.785.785v1.777h-1.777a.786.786,0,0,0-.785.785v1.933a.786.786,0,0,0,.785.785h1.777v1.776a.786.786,0,0,0,.785.785h1.933a.786.786,0,0,0,.785-.785v-1.776h1.777A.786.786,0,0,0,146.47,127.288Zm-2.916.077a.354.354,0,0,0-.354.354v2.131a.077.077,0,0,1-.077.077H141.19a.077.077,0,0,1-.077-.077v-2.131a.354.354,0,0,0-.354-.354h-2.131a.077.077,0,0,1-.077-.077v-1.933a.077.077,0,0,1,.077-.077h2.131a.354.354,0,0,0,.354-.354v-2.131a.077.077,0,0,1,.077-.077h1.933a.077.077,0,0,1,.077.077v2.131a.354.354,0,0,0,.354.354h2.131a.077.077,0,0,1,.077.077v1.933a.077.077,0,0,1-.077.077Z" transform="translate(-94.836 754.679)" fill="#505b6e"/>
    <path id="Path_11817_-_Outline" data-name="Path 11817 - Outline" d="M143.157,130.9h-1.933a1.021,1.021,0,0,1-1.018-1.018V128.34h-1.543a1.021,1.021,0,0,1-1.018-1.018v-1.933a1.021,1.021,0,0,1,1.018-1.018h1.544v-1.544a1.021,1.021,0,0,1,1.018-1.018h1.933a1.021,1.021,0,0,1,1.018,1.018v1.544h1.544a1.021,1.021,0,0,1,1.018,1.018v1.933a1.021,1.021,0,0,1-1.018,1.018h-1.544v1.543A1.021,1.021,0,0,1,143.157,130.9Zm-4.495-6.065a.554.554,0,0,0-.552.552v1.933a.554.554,0,0,0,.552.552h2.01v2.01a.554.554,0,0,0,.552.552h1.932a.554.554,0,0,0,.552-.552v-2.009h2.01a.554.554,0,0,0,.552-.552v-1.933a.554.554,0,0,0-.552-.552h-2.01v-2.01a.554.554,0,0,0-.552-.552h-1.933a.554.554,0,0,0-.552.552v2.01Zm4.495,5.356h-1.933A.308.308,0,0,1,141,130.1a.312.312,0,0,1-.091-.219v-2.131a.121.121,0,0,0-.121-.121h-2.131a.31.31,0,0,1-.31-.31v-1.933a.31.31,0,0,1,.31-.31h2.131a.121.121,0,0,0,.121-.121v-2.131a.31.31,0,0,1,.31-.31h1.933a.31.31,0,0,1,.31.31v2.131a.121.121,0,0,0,.121.121h2.131a.312.312,0,0,1,.219.091.308.308,0,0,1,.091.219v1.933a.308.308,0,0,1-.091.219.312.312,0,0,1-.219.091h-2.131a.121.121,0,0,0-.121.121v2.131a.308.308,0,0,1-.091.219A.312.312,0,0,1,143.156,130.193Zm-1.776-.466H143v-1.974a.588.588,0,0,1,.587-.587h1.974v-1.62h-1.974a.588.588,0,0,1-.587-.587v-1.975h-1.62v1.975a.588.588,0,0,1-.587.587h-1.974v1.62h1.974a.588.588,0,0,1,.587.587Z" transform="translate(-94.869 754.646)" fill="#505b6e"/>
  </g>
</svg>
