<svg xmlns="http://www.w3.org/2000/svg" width="21.857" height="25.374" viewBox="0 0 21.857 25.374">
  <g id="Labtest" transform="translate(-2.131 0)">
    <g id="chemistry" transform="translate(2.131 0)">
      <path id="Path_11823" data-name="Path 11823" d="M-17904.689-17627.086l-1.988,3.932-1.225,2.25a1.721,1.721,0,0,0-.365,1.055c.012.617.365.7.365.7l.434.363h0l16.857.17.662-.385.275-.576v-.729l-.275-.449-3.3-6.447Z" transform="translate(17911.496 17643.266)" fill="#c9e7f9"/>
      <path id="Path_11809" data-name="Path 11809" d="M57.1,22.147l-6.776-13.6V1.487h.892a.743.743,0,1,0,0-1.487H41.6a.743.743,0,1,0,0,1.487H42.5V8.547l-6.775,13.6a2.23,2.23,0,0,0,1.995,3.227H55.107A2.23,2.23,0,0,0,57.1,22.147ZM43.905,9.054a.744.744,0,0,0,.078-.331V1.487H48.84V8.722a.744.744,0,0,0,.078.331l2.427,4.872H48.618a2.328,2.328,0,0,0-4.414,0H41.478Zm3.349,5.616a.842.842,0,1,1-.842-.842A.843.843,0,0,1,47.254,14.669Zm7.853,9.218H37.716a.743.743,0,0,1-.664-1.077l3.686-7.4H44.2a2.328,2.328,0,0,0,4.414,0h3.467l3.686,7.4A.743.743,0,0,1,55.107,23.887Z" transform="translate(-35.483 0)" fill="#505b6e"/>
      <path id="Path_11810" data-name="Path 11810" d="M147.107,353a2.105,2.105,0,1,0,2.105,2.105A2.108,2.108,0,0,0,147.107,353Zm0,2.867a.761.761,0,1,1,.761-.761A.762.762,0,0,1,147.107,355.867Z" transform="translate(-139.433 -334.748)" fill="#505b6e"/>
      <path id="Path_11811" data-name="Path 11811" d="M290.342,353.542a.672.672,0,1,0-.464.774A.672.672,0,0,0,290.342,353.542Z" transform="translate(-276.359 -335.402)" fill="#505b6e"/>
      <path id="Path_11812" data-name="Path 11812" d="M338.344,385.548a.672.672,0,1,0-.464.774A.672.672,0,0,0,338.344,385.548Z" transform="translate(-321.966 -365.813)" fill="#505b6e"/>
      <path id="Path_11813" data-name="Path 11813" d="M274.345,417.541a.672.672,0,1,0-.464.774A.672.672,0,0,0,274.345,417.541Z" transform="translate(-261.161 -395.882)" fill="#505b6e"/>
    </g>
  </g>
</svg>
