<svg xmlns="http://www.w3.org/2000/svg" width="23" height="20.842" viewBox="0 0 23 20.842">
  <g id="Like_us" data-name="Like us" transform="translate(-21.5 -751.039)">
    <path id="Path_6629" data-name="Path 6629" d="M3583.9,7286.214l1.1-.261v10.8l-1.1.261a.892.892,0,0,1-.9-.9v-9a.891.891,0,0,1,.9-.9Zm4.76-1.161,5.759-5.759a.455.455,0,0,1,.288-.135.47.47,0,0,1,.306.09l.765.576c.216.162-.2.212-.115.464a1.291,1.291,0,0,1,.036.783l-.991,3.068,6.333.166a2.114,2.114,0,0,1,1.3.747,4.13,4.13,0,0,1,.451,2.061V7289a1.828,1.828,0,0,1-.135.693l-2.789,6.757a.89.89,0,0,1-.324.4.919.919,0,0,1-.5.153H3589.3a.891.891,0,0,1-.9-.9v-10.428A.907.907,0,0,1,3588.659,7285.054Z" transform="translate(-3558.795 -6525.63)" fill="#c9e7f9"/>
    <path id="Path_11829" data-name="Path 11829" d="M3584,7287h3v12h-3a.99.99,0,0,1-1-1v-10a.99.99,0,0,1,1-1Zm5.29-1.29,6.4-6.4a.5.5,0,0,1,.32-.15.523.523,0,0,1,.34.1l.85.64a1.51,1.51,0,0,1,.55,1.57l-1.15,4.53h6.4a2.014,2.014,0,0,1,2,2v2.1a2.033,2.033,0,0,1-.15.77l-3.1,7.51a.991.991,0,0,1-.36.45,1.023,1.023,0,0,1-.56.17H3590a.99.99,0,0,1-1-1v-11.59A1.009,1.009,0,0,1,3589.29,7285.71Z" transform="translate(-3561 -6527.619)" fill="none" stroke="#515c6f" stroke-width="1"/>
  </g>
</svg>
