<svg xmlns="http://www.w3.org/2000/svg" width="205.625" height="95.284" viewBox="0 0 205.625 95.284">
  <g id="RC_Logo" transform="translate(-18.538 -173.052)">
    <g id="Group_1270" data-name="Group 1270" transform="translate(18.538 173.052)">
      <g id="Group_1068" data-name="Group 1068" transform="translate(0 0)">
        <g id="Group_1067" data-name="Group 1067">
          <path id="Path_1937" data-name="Path 1937" d="M136.355,56.564c0-16.731-13.019-29.5-30.238-29.5-8.407,0-17.905,4.355-24.006,10.618l5.777,10.755c5.046-6.424,12.149-9.712,17.337-9.712,10.478-.007,18.011,7.355,17.785,18.006-.16,7.165-3.91,13.1-9.723,15.931a17.9,17.9,0,0,1-7.834,1.787A16.239,16.239,0,0,1,101,73.782l6.381,11.873L113.8,97.591h13.679l-8.348-14.666A28.406,28.406,0,0,0,136.355,56.564Z" transform="translate(-51.803 -13.031)" fill="#71ac2b"/>
          <path id="Path_1938" data-name="Path 1938" d="M65.25,23.188s7.1,29.179,27.365,28.489L75.758,33.454l19.282,15.9C94.293,43.162,89.89,28.489,65.25,23.188Z" transform="translate(-65.25 -16.12)" fill="#71ac2b"/>
          <path id="Path_1939" data-name="Path 1939" d="M83.228,19.256s-7.521,13.088-.41,21l.505-13.188,1.282,13.23C86.649,37.682,90.5,30.509,83.228,19.256Z" transform="translate(-53.677 -19.256)" fill="#9dbc21"/>
          <path id="Path_1940" data-name="Path 1940" d="M113.886,79.394c-4.125,4.122-9.813,6.757-15,6.757a17.415,17.415,0,0,1-17.551-17.8A17.346,17.346,0,0,1,98.884,50.637a17.694,17.694,0,0,1,7.307,1.726l-6.8-12.982c-.221,0-.449-.036-.674-.036-17.47,0-30.738,12.527-30.738,29.17,0,16.726,13.025,29.5,30.242,29.5,7.586,0,15.487-3.309,21.439-8.547l-5.691-9.98Z" transform="translate(-63.07 -3.234)" fill="#0057a5"/>
        </g>
      </g>
      <path id="Intersection_1" data-name="Intersection 1" d="M0,59.992A86.177,86.177,0,0,1,6,45.173,17.271,17.271,0,0,0,22.57,56.936c5.19,0,10.877-2.635,15-6.757l.086.1,5.691,9.98C37.4,65.494,29.5,68.8,21.911,68.8A30.481,30.481,0,0,1,0,59.992Zm48.753-1.413L42.34,46.643,35.959,34.771a16.239,16.239,0,0,0,4.449.663,17.9,17.9,0,0,0,7.834-1.787c5.813-2.829,9.563-8.766,9.723-15.932a17.287,17.287,0,0,0-5.751-13.81A86.072,86.072,0,0,1,65.669,0a29.353,29.353,0,0,1,5.64,17.552A28.406,28.406,0,0,1,54.085,43.913l8.348,14.666ZM23.993,21.492q1.675-1.56,3.432-3.031l2.453,4.686A18.555,18.555,0,0,0,23.993,21.492Z" transform="translate(13.244 25.981)" fill="#71ac2b" stroke="rgba(0,0,0,0)" stroke-width="1" opacity="0.3" style="mix-blend-mode: multiply;isolation: isolate"/>
    </g>
    <g id="Group_1269" data-name="Group 1269" transform="translate(117.998 203.681)">
      <path id="Path_1928" data-name="Path 1928" d="M30.834,92.1c-.459.034-.954.061-1.448.061H23.65V98.97H21.186V77.4h8.2c5.395,0,8.507,2.653,8.507,7.243,0,3.574-1.727,5.98-4.841,6.994l5.057,7.336H35.3Zm-1.448-2.308c3.914,0,6.134-1.727,6.134-5.086,0-3.27-2.221-4.933-6.134-4.933H23.65V89.789Z" transform="translate(-21.186 -77.304)" fill="#71ac2b"/>
      <path id="Path_1929" data-name="Path 1929" d="M58.106,88.2A11.036,11.036,0,0,1,46.823,99.112a10.888,10.888,0,1,1,0-21.76A10.99,10.99,0,0,1,58.106,88.2Zm-20.1,0A8.789,8.789,0,1,0,46.823,79.7,8.695,8.695,0,0,0,38.007,88.2Z" transform="translate(-14.362 -77.325)" fill="#71ac2b"/>
      <path id="Path_1930" data-name="Path 1930" d="M75.33,88.2A11.307,11.307,0,1,1,64.047,77.352,11.033,11.033,0,0,1,75.33,88.2Zm-20.1,0A8.791,8.791,0,1,0,64.047,79.7,8.7,8.7,0,0,0,55.23,88.2Z" transform="translate(-6.157 -77.325)" fill="#71ac2b"/>
      <path id="Path_1931" data-name="Path 1931" d="M79.014,79.77v19.2H76.549V79.77H69.521V77.4H86.073V79.77Z" transform="translate(1.841 -77.304)" fill="#71ac2b"/>
      <path id="Path_1932" data-name="Path 1932" d="M97.754,79.336,96.7,81.648a11.112,11.112,0,0,0-5.95-1.817c-2.774,0-4.593,1.044-4.593,2.864,0,5.548,12.146,2.656,12.115,10.48,0,3.6-3.177,5.92-7.8,5.92a12.341,12.341,0,0,1-8.263-3.3l1.113-2.221a10.749,10.749,0,0,0,7.183,3.047c3.112,0,5.052-1.264,5.052-3.323.032-5.674-12.114-2.653-12.114-10.391,0-3.39,2.994-5.576,7.46-5.576A12.789,12.789,0,0,1,97.754,79.336Z" transform="translate(7.888 -77.334)" fill="#71ac2b"/>
    </g>
    <g id="Group_1268" data-name="Group 1268" transform="translate(117.369 232.747)">
      <path id="Path_6908" data-name="Path 6908" d="M119.64,81.607l-3.423,4.173a9.459,9.459,0,0,0-6.777-3.39,8.025,8.025,0,0,0,0,16.048,10.085,10.085,0,0,0,6.777-3.046l3.462,3.753a15.258,15.258,0,0,1-10.54,4.655c-7.781,0-13.667-5.77-13.667-13.332,0-7.516,6-13.177,13.89-13.177A14.837,14.837,0,0,1,119.64,81.607Z" transform="translate(-95.472 -77.291)" fill="#0057a5"/>
      <path id="Path_6909" data-name="Path 6909" d="M117.913,98.4l-2.049,5.06H109.8L121.116,77.4h6.066l11.142,26.061h-6.3l-2.044-5.06ZM123.98,83.54,119.85,93.669h8.231Z" transform="translate(-84.249 -77.209)" fill="#0057a5"/>
      <path id="Path_6910" data-name="Path 6910" d="M139.8,96.014H133.8v7.443h-5.884V77.4H139.24c6.815,0,10.689,3.273,10.689,9.048,0,4.02-1.716,6.925-4.883,8.42l5.554,8.593h-6.667ZM139.24,91.1c3.237,0,5.1-1.489,5.1-4.464,0-2.905-1.864-4.359-5.1-4.359H133.8V91.1Z" transform="translate(-70.051 -77.209)" fill="#0057a5"/>
      <path id="Path_6911" data-name="Path 6911" d="M149.521,82.272v5.663h12.588v4.874H149.521v5.775H163.9v4.873H143.641V77.4h19.847v4.876Z" transform="translate(-57.732 -77.209)" fill="#0057a5"/>
    </g>
  </g>
</svg>
