<svg xmlns="http://www.w3.org/2000/svg" width="138.001" height="133.746" viewBox="0 0 138.001 133.746">
  <g id="No_internet_svg" data-name="No internet svg" transform="translate(-539.828 -213.786)" style="mix-blend-mode: normal;isolation: isolate">
    <g id="Group_4214" data-name="Group 4214" transform="translate(539.828 233.943)" style="mix-blend-mode: normal;isolation: isolate">
      <g id="Group_4205" data-name="Group 4205" transform="translate(57.561 89.974)">
        <g id="Group_4204" data-name="Group 4204">
          <path id="Path_12121" data-name="Path 12121" d="M752.32,632.149a11.808,11.808,0,1,1,11.807,11.807A11.808,11.808,0,0,1,752.32,632.149Z" transform="translate(-752.32 -620.342)" fill="#365eaf"/>
        </g>
      </g>
      <g id="Group_4207" data-name="Group 4207" transform="translate(37.638 68.572)">
        <g id="Group_4206" data-name="Group 4206">
          <path id="Path_12122" data-name="Path 12122" d="M737.81,562.739a3.687,3.687,0,0,1-3.2-1.842c-.287-.481-7.417-12.18-24.112-12.18-16.846,0-24.658,11.18-24.983,11.656a3.69,3.69,0,0,1-6.13-4.109c.407-.609,10.192-14.927,31.113-14.927,21.073,0,30.123,15.215,30.5,15.863a3.69,3.69,0,0,1-3.19,5.539Z" transform="translate(-678.771 -541.337)" fill="#c4e6ff"/>
        </g>
      </g>
      <g id="Group_4209" data-name="Group 4209" transform="translate(23.616 44.357)">
        <g id="Group_4208" data-name="Group 4208">
          <path id="Path_12123" data-name="Path 12123" d="M714.09,480.45a3.685,3.685,0,0,1-3.2-1.842c-.458-.777-11.646-19.284-37.947-19.284-26.453,0-38.68,17.631-39.189,18.381a3.69,3.69,0,0,1-6.133-4.1c.59-.884,14.789-21.657,45.322-21.657,30.682,0,43.79,22.029,44.332,22.967a3.69,3.69,0,0,1-3.189,5.539Z" transform="translate(-627.007 -451.944)" fill="#c4e6ff"/>
        </g>
      </g>
      <g id="Group_4211" data-name="Group 4211" transform="translate(13.283 22.552)">
        <g id="Group_4210" data-name="Group 4210">
          <path id="Path_12124" data-name="Path 12124" d="M696.611,405.191a3.689,3.689,0,0,1-3.2-1.842c-.581-.992-14.758-24.52-48.14-24.52-33.533,0-49.013,22.385-49.656,23.339a3.69,3.69,0,0,1-6.135-4.1c.725-1.087,18.177-26.617,55.791-26.617,37.766,0,53.86,27.051,54.528,28.2a3.691,3.691,0,0,1-3.191,5.539Z" transform="translate(-588.864 -371.45)" fill="#c4e6ff"/>
        </g>
      </g>
      <g id="Group_4213" data-name="Group 4213" transform="translate(0)">
        <g id="Group_4212" data-name="Group 4212">
          <path id="Path_12125" data-name="Path 12125" d="M674.142,328.668a3.686,3.686,0,0,1-3.2-1.842c-.742-1.269-18.762-31.249-61.248-31.249-42.634,0-62.915,29.415-63.115,29.712a3.69,3.69,0,0,1-6.136-4.1c.9-1.347,22.532-32.992,69.251-32.992,46.87,0,66.808,33.505,67.633,34.932a3.69,3.69,0,0,1-3.189,5.539Z" transform="translate(-539.828 -288.197)" fill="#c4e6ff"/>
        </g>
      </g>
    </g>
    <g id="Group_4215" data-name="Group 4215" transform="translate(598.828 213.786)" style="mix-blend-mode: normal;isolation: isolate">
      <path id="Path_12126" data-name="Path 12126" d="M771.2,310.5h-6.784l-6.008-71.323q-.2-4.07-.485-7.171t-.291-5.427a17.918,17.918,0,0,1,2.132-9.109q2.13-3.68,8.14-3.682,5.619,0,7.946,3.682a17.527,17.527,0,0,1,2.326,9.5q0,2.521-.1,5.718t-.484,6.492Z" transform="translate(-757.631 -213.786)" fill="#365eaf"/>
    </g>
  </g>
</svg>
