<svg xmlns="http://www.w3.org/2000/svg" width="15.707" height="19.758" viewBox="0 0 15.707 19.758">
  <g id="Notification_Icon_bell" transform="translate(-344.045 -93.992)">
    <path id="Subtraction_42" data-name="Subtraction 42" d="M18404.354,18093a1.708,1.708,0,0,1-1.641-1.523h3.281A1.7,1.7,0,0,1,18404.354,18093Zm7.855-3.039H18396.5v-.666l1.9-2.023v-5.67a6.176,6.176,0,0,1,4.58-6.143l.189-.045v-.906a1.181,1.181,0,1,1,2.355,0v.906l.189.045a6.176,6.176,0,0,1,4.58,6.143v5.67l1.908,2.023v.666Zm-7.855-13.166a4.393,4.393,0,0,0-3.221,1.4,4.935,4.935,0,0,0-1.316,3.4v6.834h9.08v-6.834a4.939,4.939,0,0,0-1.322-3.4A4.4,4.4,0,0,0,18404.354,18076.795Z" transform="translate(-18052.457 -17979.25)" fill="#17181a"/>
  </g>
</svg>
