<svg xmlns="http://www.w3.org/2000/svg" width="21.127" height="24.261" viewBox="0 0 21.127 24.261">
  <g id="Order" transform="translate(-33.062)">
    <path id="Path_11825" data-name="Path 11825" d="M-17902.961-17577.4l.68,4.328h8.559l-2.436-4.328Z" transform="translate(17945.979 17578.207)" fill="#c9e7f9"/>
    <g id="Group_3843" data-name="Group 3843" transform="translate(33.062)">
      <g id="Group_3842" data-name="Group 3842" transform="translate(0)">
        <path id="Path_11824" data-name="Path 11824" d="M54.094,6.7l-.018-.031a1.144,1.144,0,0,0-.086-.148L50.615.681A1.369,1.369,0,0,0,49.434,0H37.818a1.369,1.369,0,0,0-1.182.683l-3.43,5.951a.712.712,0,0,0-.069.167,1.2,1.2,0,0,0-.075.418v15.37a1.674,1.674,0,0,0,1.672,1.672H52.517a1.674,1.674,0,0,0,1.672-1.672V7.163c0-.021,0-.041,0-.061A.707.707,0,0,0,54.094,6.7ZM44.361,1.422H49.4l2.655,4.59H44.361Zm-6.51,0h5.088v4.59H35.205ZM52.767,22.589a.25.25,0,0,1-.25.25H34.734a.25.25,0,0,1-.25-.25V7.434H52.767Z" transform="translate(-33.062)" fill="#505b6e"/>
      </g>
    </g>
    <path id="Subtraction_37" data-name="Subtraction 37" d="M2.968,12.853A2.969,2.969,0,0,1,0,9.887V6.921H5.935V9.887A2.969,2.969,0,0,1,2.968,12.853Zm2.966-6.92H0V2.966a2.966,2.966,0,0,1,5.933,0V5.932Z" transform="translate(44.643 7.563) rotate(45)" fill="#c9e7f9"/>
    <circle id="Ellipse_583" data-name="Ellipse 583" cx="3.5" cy="3.5" r="3.5" transform="translate(42.107 13.637)" fill="#0888d1"/>
    <rect id="Rectangle_1914" data-name="Rectangle 1914" width="1" height="7" transform="translate(45.107 13.637)" fill="#fff"/>
  </g>
</svg>
