<svg xmlns="http://www.w3.org/2000/svg" xmlns:xlink="http://www.w3.org/1999/xlink" width="400.759" height="74.707" viewBox="0 0 400.759 74.707">
  <defs>
    <linearGradient id="linear-gradient" y1="0.5" x2="1" y2="0.5" gradientUnits="objectBoundingBox">
      <stop offset="0" stop-color="#4085db"/>
      <stop offset="1" stop-color="#c4e6ff"/>
    </linearGradient>
    <linearGradient id="linear-gradient-2" y1="0.5" x2="1" y2="0.5" gradientUnits="objectBoundingBox">
      <stop offset="0" stop-color="#c4e6ff"/>
      <stop offset="1" stop-color="#73b2ff"/>
    </linearGradient>
    <linearGradient id="linear-gradient-3" y1="0.5" x2="1" y2="0.5" gradientUnits="objectBoundingBox">
      <stop offset="0" stop-color="#c4e6ff"/>
      <stop offset="1" stop-color="#4085db"/>
    </linearGradient>
    <linearGradient id="linear-gradient-5" x1="-0.162" y1="0.801" x2="1.243" y2="0.339" xlink:href="#linear-gradient-3"/>
    <linearGradient id="linear-gradient-8" x1="-0.577" y1="-1.829" x2="0.391" y2="-1.829" xlink:href="#linear-gradient-3"/>
    <linearGradient id="linear-gradient-9" x1="2.694" y1="21.136" x2="3.69" y2="21.136" xlink:href="#linear-gradient-2"/>
    <linearGradient id="linear-gradient-10" x1="2.494" y1="21.121" x2="3.491" y2="21.121" xlink:href="#linear-gradient-2"/>
    <linearGradient id="linear-gradient-11" x1="2.623" y1="6.225" x2="3.648" y2="6.225" xlink:href="#linear-gradient-2"/>
    <linearGradient id="linear-gradient-12" x1="1.184" y1="2.733" x2="2.209" y2="2.733" xlink:href="#linear-gradient-2"/>
    <linearGradient id="linear-gradient-13" x1="1.144" y1="2.549" x2="2.158" y2="3.822" xlink:href="#linear-gradient-3"/>
    <linearGradient id="linear-gradient-14" x1="3.896" y1="2.504" x2="5.053" y2="2.504" xlink:href="#linear-gradient-2"/>
    <linearGradient id="linear-gradient-15" x1="3.89" y1="2.573" x2="5.046" y2="2.573" xlink:href="#linear-gradient-2"/>
  </defs>
  <g id="plug_play" data-name="plug&amp;play" transform="translate(-207.387 -857.391)" style="mix-blend-mode: normal;isolation: isolate">
    <path id="Path_12127" data-name="Path 12127" d="M766.714,969.666c-1.986.98-3.785,2.252-5.665,3.417s-3.789,2.281-5.731,3.339a94.552,94.552,0,0,1-11.761,5.439,72.379,72.379,0,0,1-25.47,4.864,56.142,56.142,0,0,1-25.009-5.548c-7.938-3.958-14.548-10.021-22.07-14.65a42.757,42.757,0,0,0-13.264-5.549c-4.592-.988-9.582-1.053-13.859,1.107-.561.283-.157,1.1.411.975a28.374,28.374,0,0,1,12.605-.03,41,41,0,0,1,11.889,5.079c7.571,4.588,14.135,10.691,22,14.814,15.788,8.273,34.536,7.7,51.008,1.849a95.321,95.321,0,0,0,13.321-5.952q3.284-1.771,6.438-3.77a35.993,35.993,0,0,0,5.956-4.345C768.078,970.161,767.367,969.344,766.714,969.666Z" transform="translate(-159.573 -61.05)" fill="url(#linear-gradient)"/>
    <g id="Group_4224" data-name="Group 4224" transform="translate(410.652 857.391)" style="mix-blend-mode: normal;isolation: isolate">
      <g id="Group_4219" data-name="Group 4219" transform="translate(57.103 31.106)">
        <g id="Group_4217" data-name="Group 4217">
          <path id="Path_12128" data-name="Path 12128" d="M642.338,951.054l-1.49,10.989a5.741,5.741,0,0,1-1.745,3.4h.007c-.034.033-.071.063-.106.095s-.081.073-.122.108c-.128.11-.26.216-.4.315a5.262,5.262,0,0,1-.454.293c-.079.045-.158.09-.237.132s-.162.082-.244.12-.165.075-.251.109-.169.068-.255.1-.172.056-.259.083c-.068.022-.135.041-.2.056s-.127.034-.2.049-.131.03-.2.042h0c-.161.03-.322.052-.484.071a5.954,5.954,0,0,1-1.34-.026l-12.13-1.648-.391-.053-4.32-.585-.935-.128a.519.519,0,0,1-.443-.581l2.9-21.393a.521.521,0,0,1,.581-.443l1.535.21,3.787.514.06.008,3.183.432,9.21,1.25A5.765,5.765,0,0,1,642.338,951.054Z" transform="translate(-616.136 -942.146)" fill="url(#linear-gradient-2)"/>
        </g>
        <g id="Group_4218" data-name="Group 4218">
          <path id="Path_12129" data-name="Path 12129" d="M639.11,965.439a5.542,5.542,0,0,1-.627.518,5.262,5.262,0,0,1-.454.293c-.079.045-.158.09-.237.132s-.162.082-.244.12-.165.075-.251.109-.169.068-.255.1-.172.056-.259.083c-.068.022-.135.041-.2.056s-.127.034-.2.049-.131.03-.2.042h0c-.161.03-.322.052-.484.071a5.954,5.954,0,0,1-1.34-.026l-12.13-1.648-.391-.053-4.32-.585-.935-.128a.519.519,0,0,1-.443-.581l2.9-21.393a.521.521,0,0,1,.581-.443l1.535.21,3.787.514.06.008,3.183.432-1.805,13.3a7.038,7.038,0,0,0,6.024,7.919Z" transform="translate(-616.136 -942.146)" fill="url(#linear-gradient-3)"/>
        </g>
      </g>
      <g id="Group_4221" data-name="Group 4221" transform="translate(7.968 4.769)">
        <g id="Group_4220" data-name="Group 4220">
          <path id="Path_12130" data-name="Path 12130" d="M591.243,924.785v.049c-.007.574-.049,1.156-.112,1.741-.008.075-.015.146-.027.222-.015.172-.037.349-.06.522l-2.226,16.39a23.213,23.213,0,0,1-23.956,20.09c-.724-.03-1.456-.094-2.188-.191l-.8-.109h0l-.308-.041-11.23-1.524-.341-.045-2.95-.4-6.782-.92-2.59-.353-.172-.023c-.113-.015-.222-.037-.331-.06-.041-.008-.082-.019-.124-.027a.509.509,0,0,1-.071-.018,2.118,2.118,0,0,1-.229-.06,3.894,3.894,0,0,1-.574-.213c-.127-.056-.248-.12-.375-.188l-.008,0a1.781,1.781,0,0,1-.289-.177,3.929,3.929,0,0,1-.481-.346l-.09-.078c-.068-.061-.131-.12-.2-.18-.094-.09-.18-.184-.267-.282a.483.483,0,0,1-.082-.1c-.071-.086-.146-.173-.21-.267,0,0-.007-.008-.011-.011s-.007-.011-.007-.019a1.929,1.929,0,0,1-.124-.187,1.809,1.809,0,0,1-.1-.158l-.045-.079c-.042-.064-.075-.127-.109-.191a3.493,3.493,0,0,1-.154-.338c-.019-.049-.042-.1-.06-.15-.034-.082-.063-.169-.09-.255-.037-.124-.071-.244-.1-.367-.023-.083-.038-.169-.053-.256-.008-.041-.015-.079-.019-.12-.018-.128-.034-.255-.045-.383s-.015-.259-.015-.391a4.511,4.511,0,0,1,.041-.634l7.149-52.682a4.918,4.918,0,0,1,4.928-4.256h0a.239.239,0,0,1,.072,0,5.1,5.1,0,0,1,.533.042l2.762.375,6.782.919,3.236.439.06.008,11.225,1.523.026,0,1.088.146c.732.1,1.453.237,2.162.4a23.061,23.061,0,0,1,10.257,5.352v.007a.217.217,0,0,1,.049.038c.023.018.045.041.068.06.1.09.2.184.3.274a1.126,1.126,0,0,1,.1.094c.169.161.327.319.488.48l.023.023c.083.082.162.165.241.248s.169.177.251.27c.458.5.9,1.021,1.321,1.558a23.913,23.913,0,0,1,1.373,1.985c.188.3.365.6.533.9.1.184.2.364.3.552.259.491.5,1.006.724,1.516.075.169.15.338.218.518s.143.345.2.522.135.353.2.529.127.353.18.533c.12.36.229.717.326,1.081s.188.736.267,1.1c.045.188.082.368.116.555.034.158.056.312.09.469a22.719,22.719,0,0,1,.278,2.376c.015.187.026.379.037.57,0,.015,0,.023,0,.03,0,.184.011.375.008.559A10.033,10.033,0,0,1,591.243,924.785Z" transform="translate(-533.239 -897.712)" fill="url(#linear-gradient-2)"/>
        </g>
      </g>
      <path id="Path_12131" data-name="Path 12131" d="M591.251,930.746c0-.184,0-.376-.008-.56-.007-.008-.007-.015,0-.03-.011-.191-.023-.383-.037-.57a22.719,22.719,0,0,0-.278-2.376c-.034-.158-.056-.312-.09-.469-.034-.187-.071-.367-.116-.555-.079-.367-.172-.739-.267-1.1s-.206-.72-.326-1.081c-.053-.18-.12-.357-.18-.533s-.128-.353-.2-.529-.127-.346-.2-.522-.142-.349-.218-.518c-.221-.51-.465-1.025-.724-1.516-.1-.188-.2-.368-.3-.552-.169-.3-.346-.6-.533-.9a23.925,23.925,0,0,0-1.373-1.985c-.424-.537-.863-1.062-1.321-1.558-.082-.094-.165-.184-.251-.27s-.158-.165-.241-.248l-.023-.023-.023-.023c.01.036.023.071.032.106.094.365.188.736.267,1.1.045.188.082.367.116.555.034.158.056.312.09.469a22.722,22.722,0,0,1,.278,2.376c.015.187.026.379.037.57,0,.015,0,.023,0,.03,0,.184.011.375.008.559a10.1,10.1,0,0,1-.008,1.01v.049c-.007.574-.049,1.156-.113,1.741-.007.075-.015.146-.026.222-.015.172-.037.349-.06.522l-2.226,16.39a23.213,23.213,0,0,1-23.956,20.09c-.725-.03-1.456-.094-2.188-.192l-.8-.109h0l-.308-.041-11.229-1.524-.341-.045-2.95-.4-6.782-.919-.513-.07-.584,4.306a4.512,4.512,0,0,0-.041.634c0,.132,0,.259.015.391s.027.255.045.383c0,.041.011.078.019.12.015.087.03.172.053.255.026.124.06.244.1.368.027.086.056.173.09.255.019.049.041.1.06.15a3.493,3.493,0,0,0,.154.338c.034.064.068.127.109.191l.045.079a1.811,1.811,0,0,0,.1.158,1.929,1.929,0,0,0,.124.187c0,.008,0,.011.007.019s.011.008.011.011c.064.094.139.18.21.267a.486.486,0,0,0,.082.1c.086.1.173.192.267.281.064.06.127.12.2.18l.09.079a3.9,3.9,0,0,0,.481.346,1.764,1.764,0,0,0,.289.177l.008,0c.127.068.248.132.375.188a3.881,3.881,0,0,0,.574.214,2.146,2.146,0,0,0,.229.06.546.546,0,0,0,.071.018c.042.008.083.019.124.027.109.023.218.045.331.06l.172.023,2.59.353,6.782.92,2.95.4.341.045,11.23,1.524.308.042h0l.8.109c.732.1,1.464.162,2.188.192a23.213,23.213,0,0,0,23.956-20.09l2.226-16.39c.023-.172.045-.349.06-.522.011-.075.019-.146.027-.222.063-.586.1-1.167.112-1.741v-.049A9.856,9.856,0,0,0,591.251,930.746Z" transform="translate(-525.271 -899.912)" fill="url(#linear-gradient-5)"/>
      <g id="Group_4222" data-name="Group 4222" transform="translate(24.708 3.353)">
        <path id="Path_12132" data-name="Path 12132" d="M581.661,902.247l-7.548,55.636-.477,3.509a6.11,6.11,0,0,1-.263,1.134h0a5.688,5.688,0,0,1-.394.916,6.107,6.107,0,0,1-11.335-1.479,5.678,5.678,0,0,1-.15-1.043v0a6.054,6.054,0,0,1,.045-1.164l.39-2.867,7.638-56.278a6.007,6.007,0,0,1,.683-2.09,0,0,0,0,1,0,0,6.1,6.1,0,0,1,11.308,1.539A6.037,6.037,0,0,1,581.661,902.247Z" transform="translate(-561.482 -895.322)" fill="url(#linear-gradient-2)"/>
      </g>
      <g id="Group_4223" data-name="Group 4223" transform="translate(0 0)">
        <path id="Path_12133" data-name="Path 12133" d="M534.747,889.721a6.1,6.1,0,0,0-6.87,5.228L519.851,954.1a6.1,6.1,0,0,0,12.1,1.641l8.026-59.145A6.1,6.1,0,0,0,534.747,889.721Z" transform="translate(-519.795 -889.665)" fill="url(#linear-gradient-2)"/>
      </g>
    </g>
    <path id="Path_12134" data-name="Path 12134" d="M291.234,960.89c-6.075.1-12.354,1.086-17.807,3.9-5.481,2.83-9.453,7.573-13.466,12.119-3.759,4.258-7.982,8.726-13.565,10.469-6.656,2.078-13.229-1.062-19.314-3.485a34.589,34.589,0,0,0-10.389-2.769,16.92,16.92,0,0,0-4.793.279,13.956,13.956,0,0,0-2.377.757,12.177,12.177,0,0,0-2.029,1.356c-.613.427.026,1.454.69,1.111a13.283,13.283,0,0,1,2.013-.67,14.344,14.344,0,0,1,2.046-.522,17.6,17.6,0,0,1,4.374-.246,31.5,31.5,0,0,1,9.139,2.387c6.087,2.375,12.486,5.507,19.207,4.221,12.228-2.339,17.17-15.373,26.583-21.918,5.808-4.039,12.9-4.853,19.731-5.725C291.974,962.067,291.964,960.879,291.234,960.89Z" transform="translate(0.14 -63.957)" fill="url(#linear-gradient-8)"/>
    <g id="Group_4237" data-name="Group 4237" transform="translate(282.439 858.25)" style="mix-blend-mode: normal;isolation: isolate">
      <g id="Group_4225" data-name="Group 4225" transform="translate(71.462 17.646)" style="mix-blend-mode: normal;isolation: isolate">
        <path id="Path_12135" data-name="Path 12135" d="M463.59,933.2l-20.011,1.54a2.9,2.9,0,0,1-3.114-2.669h0a2.9,2.9,0,0,1,2.669-3.115l20.011-1.54a2.9,2.9,0,0,1,3.114,2.669h0A2.9,2.9,0,0,1,463.59,933.2Z" transform="translate(-440.456 -927.408)" fill="url(#linear-gradient-9)"/>
      </g>
      <g id="Group_4226" data-name="Group 4226" transform="translate(71.463 19.486)" style="mix-blend-mode: normal;isolation: isolate">
        <path id="Path_12136" data-name="Path 12136" d="M463.46,932.592l-20.011,1.54a2.891,2.891,0,0,1-2.908-1.831,2.856,2.856,0,0,0-.076.86,2.9,2.9,0,0,0,3.114,2.67l20.011-1.541a2.9,2.9,0,0,0,2.669-3.115,2.856,2.856,0,0,0-.207-.838A2.892,2.892,0,0,1,463.46,932.592Z" transform="translate(-440.459 -930.337)" fill="#ced5e8"/>
      </g>
      <g id="Group_4227" data-name="Group 4227" transform="translate(73.462 43.638)" style="mix-blend-mode: normal;isolation: isolate">
        <path id="Path_12137" data-name="Path 12137" d="M466.774,974.573l-20.01,1.54a2.9,2.9,0,0,1-3.115-2.669h0a2.9,2.9,0,0,1,2.669-3.115l20.011-1.54a2.9,2.9,0,0,1,3.114,2.669h0A2.9,2.9,0,0,1,466.774,974.573Z" transform="translate(-443.64 -968.78)" fill="url(#linear-gradient-10)"/>
      </g>
      <g id="Group_4228" data-name="Group 4228" transform="translate(73.464 45.478)" style="mix-blend-mode: normal;isolation: isolate">
        <path id="Path_12138" data-name="Path 12138" d="M466.645,973.964l-20.011,1.54a2.891,2.891,0,0,1-2.908-1.831,2.862,2.862,0,0,0,3.039,3.53l20.011-1.54a2.861,2.861,0,0,0,2.462-3.953A2.891,2.891,0,0,1,466.645,973.964Z" transform="translate(-443.643 -971.709)" fill="#ced5e8"/>
      </g>
      <g id="Group_4236" data-name="Group 4236" transform="translate(0 -0.001)" style="mix-blend-mode: normal;isolation: isolate">
        <g id="Group_4231" data-name="Group 4231" transform="translate(0 28.456)" style="mix-blend-mode: normal;isolation: isolate">
          <g id="Group_4229" data-name="Group 4229">
            <path id="Path_12139" data-name="Path 12139" d="M349.986,944.614l-17.937,1.38a5.783,5.783,0,0,0-5.322,6.21l.853,11.089a5.783,5.783,0,0,0,6.21,5.322l17.937-1.38a.518.518,0,0,0,.477-.557l-1.661-21.586A.518.518,0,0,0,349.986,944.614Z" transform="translate(-326.709 -944.613)" fill="url(#linear-gradient-11)"/>
          </g>
          <g id="Group_4230" data-name="Group 4230" transform="translate(2.413)" style="mix-blend-mode: multiply;isolation: isolate">
            <path id="Path_12140" data-name="Path 12140" d="M351.413,944.614l-8.639.665,1.033,13.421a7.054,7.054,0,0,1-6.492,7.575l-6.764.521a5.77,5.77,0,0,0,4.667,1.819l17.937-1.38a.518.518,0,0,0,.477-.557l-1.661-21.586A.519.519,0,0,0,351.413,944.614Z" transform="translate(-330.551 -944.613)" fill="#d8e0ed"/>
          </g>
        </g>
        <g id="Group_4233" data-name="Group 4233" transform="translate(17.828 4.433)" style="mix-blend-mode: normal;isolation: isolate">
          <g id="Group_4232" data-name="Group 4232" style="mix-blend-mode: normal;isolation: isolate">
            <path id="Path_12141" data-name="Path 12141" d="M407.31,910.931l4.091,53.162a4.328,4.328,0,0,1,0,.638c-.008.131-.02.259-.036.388s-.04.255-.064.381a1.183,1.183,0,0,1-.026.119c-.016.07-.036.139-.056.209,0,.012-.006.024-.01.036-.034.115-.07.229-.113.338-.031.09-.068.173-.107.261-.023.058-.05.112-.077.167a.134.134,0,0,1-.013.029,2.724,2.724,0,0,1-.135.255.032.032,0,0,1-.012.018,3,3,0,0,1-.181.291.1.1,0,0,1-.019.023,3.68,3.68,0,0,1-.231.308s0,.012-.008.017l-.013.014c-.069.09-.145.17-.222.254a.475.475,0,0,1-.091.1,3.6,3.6,0,0,1-.285.263c-.052.049-.107.094-.163.139s-.088.071-.134.107a4.373,4.373,0,0,1-.5.317,1.885,1.885,0,0,1-.3.159H408.6a3.986,3.986,0,0,1-.388.169,4.054,4.054,0,0,1-.588.179c-.094.023-.2.047-.306.065-.147.026-.3.045-.456.057l-.565.045-24.844,1.91c-.738.057-1.475.075-2.2.062A23.3,23.3,0,0,1,356.431,949.9l-1.272-16.537c-.016-.213-.028-.423-.04-.634,0-.038,0-.075,0-.113-.031-.591-.038-1.175-.013-1.753,0-.351.022-.708.054-1.06.009-.184.024-.373.04-.559.011-.006.009-.013.006-.028.021-.194.048-.386.072-.569a21.492,21.492,0,0,1,.415-2.365c.042-.153.075-.308.116-.464.047-.184.095-.361.148-.55.1-.363.219-.728.334-1.086s.249-.711.388-1.062c.063-.18.142-.355.211-.525s.151-.346.227-.521.149-.338.236-.511.164-.341.249-.506c.249-.5.523-.995.814-1.474.1-.181.214-.359.33-.534.188-.3.381-.582.585-.874.466-.656.965-1.3,1.492-1.907.456-.513.927-1.011,1.414-1.481.174-.176.362-.339.543-.512.172-.152.343-.3.522-.45.071-.064.143-.124.214-.183.09-.079.185-.155.281-.227a.094.094,0,0,1,.036-.026l0-.008a23.157,23.157,0,0,1,10.58-4.762q1.081-.188,2.192-.275l25.406-1.954A4.936,4.936,0,0,1,407.31,910.931Z" transform="translate(-355.087 -906.374)" fill="url(#linear-gradient-12)"/>
          </g>
        </g>
        <path id="Path_12142" data-name="Path 12142" d="M389.966,963.744c-.738.057-1.475.075-2.2.062A23.3,23.3,0,0,1,364.947,942.3l-1.272-16.537c-.016-.213-.028-.423-.04-.635,0-.038,0-.075,0-.113-.031-.591-.038-1.175-.013-1.753,0-.351.021-.708.053-1.06.009-.184.024-.373.04-.559.01-.006.009-.013.006-.028.022-.194.048-.386.072-.569a21.506,21.506,0,0,1,.416-2.365c.041-.153.075-.308.116-.464.047-.184.095-.361.148-.55.1-.362.219-.728.334-1.086.042-.129.094-.253.139-.381q-.568.4-1.111.835l0,.008a.1.1,0,0,0-.036.026c-.1.072-.191.148-.281.227-.072.06-.143.12-.214.183-.179.15-.351.3-.522.45-.182.173-.369.336-.543.512-.487.47-.958.967-1.414,1.481-.527.611-1.027,1.251-1.492,1.907-.2.292-.4.578-.585.874-.117.175-.226.353-.33.534-.292.48-.565.976-.814,1.474-.085.165-.173.331-.249.506s-.164.337-.236.511-.155.347-.227.521-.148.345-.211.525c-.138.351-.27.7-.388,1.062s-.231.723-.334,1.086c-.053.19-.1.366-.148.55-.041.156-.074.312-.116.464a21.492,21.492,0,0,0-.415,2.365c-.025.183-.051.375-.072.569,0,.014,0,.022-.006.028-.016.186-.031.375-.04.559-.032.352-.052.71-.054,1.061-.024.579-.018,1.163.013,1.753,0,.038,0,.075,0,.113.012.211.023.422.04.635l1.272,16.537a23.3,23.3,0,0,0,22.815,21.507c.729.014,1.466-.005,2.2-.062l24.844-1.91.565-.045c.157-.012.309-.031.456-.057.107-.018.212-.042.306-.065a4.523,4.523,0,0,0,.976-.348h.007a1.9,1.9,0,0,0,.3-.159,4.415,4.415,0,0,0,.5-.317c.046-.036.093-.068.134-.107s.111-.09.163-.139a3.714,3.714,0,0,0,.285-.263.472.472,0,0,0,.091-.1c.078-.084.153-.164.222-.254l.013-.014c.007-.005.005-.013.008-.017a3.649,3.649,0,0,0,.231-.308.1.1,0,0,0,.019-.023,3.018,3.018,0,0,0,.181-.291.031.031,0,0,0,.012-.018,2.749,2.749,0,0,0,.135-.255.133.133,0,0,0,.013-.03c.027-.055.054-.109.077-.167.039-.088.076-.172.107-.261.043-.109.079-.223.113-.338,0-.012.006-.024.01-.036.019-.07.04-.139.056-.209a1.185,1.185,0,0,0,.026-.119c.024-.126.048-.253.064-.381s.029-.257.036-.388a4.327,4.327,0,0,0,0-.638l-.432-5.616Z" transform="translate(-337.259 -905.594)" fill="url(#linear-gradient-13)"/>
        <g id="Group_4234" data-name="Group 4234" transform="translate(40.193 1.919)" style="mix-blend-mode: normal;isolation: isolate">
          <path id="Path_12143" data-name="Path 12143" d="M396.338,902.392a6.122,6.122,0,0,0-5.634,6.574l4.594,59.685a6.122,6.122,0,0,0,12.208-.94l-4.594-59.685A6.122,6.122,0,0,0,396.338,902.392Z" transform="translate(-390.686 -902.374)" fill="url(#linear-gradient-14)"/>
        </g>
        <g id="Group_4235" data-name="Group 4235" transform="translate(65.127)" style="mix-blend-mode: normal;isolation: isolate">
          <path id="Path_12144" data-name="Path 12144" d="M436.026,899.337h0a6.122,6.122,0,0,0-5.634,6.574l4.594,59.684a6.122,6.122,0,0,0,6.573,5.634h0a6.121,6.121,0,0,0,5.635-6.573L442.6,904.972A6.123,6.123,0,0,0,436.026,899.337Z" transform="translate(-430.374 -899.319)" fill="url(#linear-gradient-15)"/>
        </g>
      </g>
    </g>
  </g>
</svg>
