<svg xmlns="http://www.w3.org/2000/svg" width="17.672" height="20.26" viewBox="0 0 17.672 20.26">
  <g id="Bell" transform="translate(-343.792 -51.74)">
    <g id="Group_34" data-name="Group 34" transform="translate(0 -42)">
      <path id="notifications" d="M11.1,22.26a1.975,1.975,0,0,0,1.907-2.026H9.2A1.975,1.975,0,0,0,11.1,22.26Zm6.2-6.078V10.61a6.448,6.448,0,0,0-4.767-6.382V3.519A1.514,1.514,0,0,0,11.1,2a1.514,1.514,0,0,0-1.43,1.519v.709A6.448,6.448,0,0,0,4.907,10.61v5.571L3,18.208v1.013H19.208V18.208Zm-1.907,1.013H6.814V10.61A4.412,4.412,0,0,1,11.1,6.052a4.412,4.412,0,0,1,4.29,4.558Z" transform="translate(340.792 91.74)" fill="#848a93"/>
    </g>
    <g id="Path_9474" data-name="Path 9474" transform="translate(352.536 52.536)" fill="red">
      <path d="M 4.4638671875 8.427737236022949 C 2.278177261352539 8.427737236022949 0.4999971985816956 6.649557113647461 0.4999971985816956 4.4638671875 C 0.4999971985816956 2.278177261352539 2.278177261352539 0.4999971985816956 4.4638671875 0.4999971985816956 C 6.649557113647461 0.4999971985816956 8.427737236022949 2.278177261352539 8.427737236022949 4.4638671875 C 8.427737236022949 6.649557113647461 6.649557113647461 8.427737236022949 4.4638671875 8.427737236022949 Z" stroke="none"/>
      <path d="M 4.4638671875 0.9999971389770508 C 2.553887367248535 0.9999971389770508 0.9999971389770508 2.553887367248535 0.9999971389770508 4.4638671875 C 0.9999971389770508 6.373847007751465 2.553887367248535 7.927737236022949 4.4638671875 7.927737236022949 C 6.373847007751465 7.927737236022949 7.927737236022949 6.373847007751465 7.927737236022949 4.4638671875 C 7.927737236022949 2.553887367248535 6.373847007751465 0.9999971389770508 4.4638671875 0.9999971389770508 M 4.4638671875 -2.86102294921875e-06 C 6.929197311401367 -2.86102294921875e-06 8.927737236022949 1.998537063598633 8.927737236022949 4.4638671875 C 8.927737236022949 6.929197311401367 6.929197311401367 8.927737236022949 4.4638671875 8.927737236022949 C 1.998537063598633 8.927737236022949 -2.86102294921875e-06 6.929197311401367 -2.86102294921875e-06 4.4638671875 C -2.86102294921875e-06 1.998537063598633 1.998537063598633 -2.86102294921875e-06 4.4638671875 -2.86102294921875e-06 Z" stroke="none" fill="#fff"/>
    </g>
  </g>
</svg>
