<svg xmlns="http://www.w3.org/2000/svg" width="7.393" height="7.356" viewBox="0 0 7.393 7.356">
  <path id="Path_1963" data-name="Path 1963" d="M3.777.958a.5.5,0,0,1,.9,0l.746,1.58a.5.5,0,0,0,.376.281l1.7.263a.5.5,0,0,1,.282.843L6.525,5.22a.5.5,0,0,0-.135.428l.29,1.8a.5.5,0,0,1-.735.518L4.47,7.153a.5.5,0,0,0-.482,0l-1.475.811a.5.5,0,0,1-.735-.518l.29-1.8a.5.5,0,0,0-.135-.428L.674,3.925a.5.5,0,0,1,.282-.843l1.7-.263a.5.5,0,0,0,.376-.281Z" transform="translate(-0.533 -0.672)" fill="#fff"/>
</svg>
