<svg xmlns="http://www.w3.org/2000/svg" width="21.998" height="22" viewBox="0 0 21.998 22">
  <g id="Support" transform="translate(-21.502 -710.055)">
    <path id="Path_11830" data-name="Path 11830" d="M-17904.424-17318.174l2.908,3.074a5.607,5.607,0,0,1,4.32.352,33.921,33.921,0,0,0,3.24-3.426,7.92,7.92,0,0,0-8.586-1.178,14.792,14.792,0,0,0-1.549.893Z" transform="translate(17932.432 18030.693)" fill="#c9e7f9"/>
    <path id="Path_11831" data-name="Path 11831" d="M-17904.424-17318.174l2.908,3.074a4.731,4.731,0,0,1,4.279.068c2.646-2.59,3.281-3.143,3.281-3.143a7.92,7.92,0,0,0-8.586-1.178,14.792,14.792,0,0,0-1.549.893Z" transform="matrix(-0.07, 0.998, -0.998, -0.07, -18483.578, 17369.549)" fill="#c9e7f9"/>
    <path id="Path_11832" data-name="Path 11832" d="M-17904.424-17318.174l2.908,3.074a5.607,5.607,0,0,1,4.32.352,33.921,33.921,0,0,0,3.24-3.426,7.92,7.92,0,0,0-8.586-1.178,14.792,14.792,0,0,0-1.549.893Z" transform="translate(-17562.305 -16898.203) rotate(-179)" fill="#c9e7f9"/>
    <path id="Subtraction_41" data-name="Subtraction 41" d="M17943,18054a11,11,0,1,1,11-11A11.012,11.012,0,0,1,17943,18054Zm-2.229-6.219-3.25,3.246.559.326a9.677,9.677,0,0,0,9.846,0l.553-.326-3.244-3.248-.3.113a5.383,5.383,0,0,1-3.857,0Zm-5.791-10.256-.33.551a9.688,9.688,0,0,0,0,9.852l.33.549,3.244-3.244-.113-.3a5.366,5.366,0,0,1-.357-1.93,5.233,5.233,0,0,1,.357-1.922l.113-.3Zm16.045,0-3.248,3.248.117.3a5.356,5.356,0,0,1,0,3.848l-.117.3,3.248,3.25.33-.553a9.681,9.681,0,0,0,0-9.848Zm-8.025,1.525a3.954,3.954,0,1,0,2.791,1.156A3.919,3.919,0,0,0,17943,18039.051Zm0-1.3a5.329,5.329,0,0,1,1.926.359l.3.117,3.248-3.254-.553-.326a9.677,9.677,0,0,0-9.846,0l-.559.326,3.25,3.25.3-.113A5.455,5.455,0,0,1,17943,18037.75Z" transform="translate(-17910.5 -17321.945)" fill="#515c6f"/>
  </g>
</svg>
