<svg xmlns="http://www.w3.org/2000/svg" width="17.352" height="18.363" viewBox="0 0 17.352 18.363">
  <path id="Home_Icon" d="M18396.547,17303.666h-16.137a.666.666,0,0,1-.434-.176.651.651,0,0,1-.176-.436v-10.781a.521.521,0,0,1,.051-.244l.01-.014a.609.609,0,0,1,.16-.207l8.076-6.373a.605.605,0,0,1,.379-.133.634.634,0,0,1,.379.133l8.07,6.363,0,.01a.557.557,0,0,1,.168.207l0,.014a.478.478,0,0,1,.051.244v10.781a.6.6,0,0,1-.605.611Zm-8.07-16.973-7.3,5.762-.152.119v9.871h14.918v-9.871Zm0,12.936a4.643,4.643,0,0,1-3.283-1.352,4.7,4.7,0,0,1-1.344-2.891h1.225a3.437,3.437,0,0,0,3.4,3.023,3.429,3.429,0,0,0,3.4-3.023h1.225a4.633,4.633,0,0,1-4.627,4.242Z" transform="translate(-18379.801 -17285.303)" fill="#0168b3"/>
</svg>
