<svg xmlns="http://www.w3.org/2000/svg" width="18.781" height="18.781" viewBox="0 0 18.781 18.781">
  <g id="Appointment_Icon" transform="translate(-2.1 -2.102)">
    <path id="Subtraction_35" data-name="Subtraction 35" d="M18318,17304.2h-14.914a1.939,1.939,0,0,1-1.936-1.936V17288.7a1.939,1.939,0,0,1,1.936-1.936h2.809v-.777a.579.579,0,0,1,1.158,0v.777h6.98v-.777a.577.577,0,0,1,1.154,0v.777H18318a1.937,1.937,0,0,1,1.932,1.936v13.559A1.937,1.937,0,0,1,18318,17304.2Zm-15.691-12.2v10.268a.777.777,0,0,0,.777.777H18318a.777.777,0,0,0,.777-.777v-10.266h-16.469Zm.777-4.068a.777.777,0,0,0-.777.777v2.133h16.469v-2.133a.777.777,0,0,0-.777-.777Z" transform="translate(-18299.055 -17283.313)" fill="#505b6e"/>
    <path id="Path_11821" data-name="Path 11821" d="M16.758,15.15l-4.114,3.526-1.532-1.531a.653.653,0,1,0-.923.923l1.959,1.959a.653.653,0,0,0,.886.034L17.6,16.143a.653.653,0,1,0-.849-.991Z" transform="translate(-2.426 -4.05)" fill="#505b6e"/>
  </g>
</svg>
