<svg xmlns="http://www.w3.org/2000/svg" width="23.203" height="20" viewBox="0 0 23.203 20">
  <g id="Consultation" transform="translate(-49.799 -78.752)">
    <path id="Union_116" data-name="Union 116" d="M19.362,19.734l-1.612-1.612H13.105a1.555,1.555,0,0,1-1.557-1.551V13.266H8.359l-2.712,2.72a1.143,1.143,0,0,1-.787.33A1.134,1.134,0,0,1,3.73,15.19V13.266H2.179A2.183,2.183,0,0,1,0,11.089V2.179A2.183,2.183,0,0,1,2.179,0H16.041a2.181,2.181,0,0,1,2.175,2.179V9.522h3.43A1.557,1.557,0,0,1,23.2,11.073v5.5a1.557,1.557,0,0,1-1.557,1.551H20.9V19.1a.9.9,0,0,1-.553.835A.979.979,0,0,1,20,20,.888.888,0,0,1,19.362,19.734Zm-6.716-8.661v5.5a.453.453,0,0,0,.459.451h4.873a.54.54,0,0,1,.39.165l1.41,1.41.026-1.03a.548.548,0,0,1,.549-.545h1.292a.452.452,0,0,0,.455-.451v-5.5a.456.456,0,0,0-.455-.453h-8.54A.457.457,0,0,0,12.647,11.073ZM1.1,2.179v8.911a1.077,1.077,0,0,0,1.08,1.074h2.1a.553.553,0,0,1,.549.553V15.19c0,.01,0,.02.016.02s.01,0,.018-.006l2.879-2.873a.552.552,0,0,1,.386-.167h3.418v-1.09a1.555,1.555,0,0,1,1.557-1.551h4.016V2.179a1.086,1.086,0,0,0-1.08-1.08H2.183A1.084,1.084,0,0,0,1.1,2.179ZM14.333,15.57a.55.55,0,1,1,0-1.1H20.42a.55.55,0,0,1,0,1.1Zm0-2.392a.551.551,0,1,1,0-1.1H20.42a.551.551,0,0,1,0,1.1ZM8.2,10.888a.955.955,0,0,1-.95-.95V8.49H5.806a.953.953,0,0,1-.95-.95V5.73a.951.951,0,0,1,.95-.954H7.255V3.33a.953.953,0,0,1,.95-.952h1.807a.959.959,0,0,1,.958.952V4.776h1.44a.957.957,0,0,1,.958.954V7.54a.958.958,0,0,1-.958.95h-1.44V9.939a.961.961,0,0,1-.958.95ZM5.951,7.39H7.8a.553.553,0,0,1,.549.551V9.788H9.866V7.941a.554.554,0,0,1,.553-.551h1.845V5.879H10.419a.553.553,0,0,1-.553-.551V3.481H8.349V5.327a.552.552,0,0,1-.549.551H5.951Z" transform="translate(49.799 78.752)" fill="#505b6e"/>
  </g>
</svg>
