<svg xmlns="http://www.w3.org/2000/svg" width="17.426" height="20.23" viewBox="0 0 17.426 20.23">
  <g id="Lab_Test_Icon" transform="translate(-35.483 0)">
    <path id="Path_11809" data-name="Path 11809" d="M52.72,17.658l-5.4-10.843V1.185h.711a.593.593,0,0,0,0-1.185H40.364a.593.593,0,0,0,0,1.185h.711V6.815l-5.4,10.842a1.778,1.778,0,0,0,1.59,2.573H51.129A1.778,1.778,0,0,0,52.72,17.658ZM42.2,7.219a.593.593,0,0,0,.062-.264V1.185h3.872V6.954a.593.593,0,0,0,.062.264L48.13,11.1H45.956a1.856,1.856,0,0,0-3.519,0H40.263Zm2.67,4.477a.672.672,0,1,1-.672-.672A.672.672,0,0,1,44.868,11.7Zm6.261,7.349H37.263a.593.593,0,0,1-.53-.859l2.938-5.9h2.765a1.856,1.856,0,0,0,3.519,0H48.72l2.939,5.9A.593.593,0,0,1,51.129,19.045Z" transform="translate(0)" fill="#505b6e"/>
    <path id="Path_11810" data-name="Path 11810" d="M146.681,353a1.679,1.679,0,1,0,1.679,1.679A1.68,1.68,0,0,0,146.681,353Zm0,2.286a.607.607,0,1,1,.607-.607A.608.608,0,0,1,146.681,355.286Z" transform="translate(-105.079 -338.448)" fill="#505b6e"/>
    <path id="Path_11811" data-name="Path 11811" d="M290.072,353.432a.536.536,0,1,0-.37.617A.536.536,0,0,0,290.072,353.432Z" transform="translate(-243.441 -338.97)" fill="#505b6e"/>
    <path id="Path_11812" data-name="Path 11812" d="M338.075,385.438a.536.536,0,1,0-.37.617A.536.536,0,0,0,338.075,385.438Z" transform="translate(-289.533 -369.704)" fill="#505b6e"/>
    <path id="Path_11813" data-name="Path 11813" d="M274.076,417.432a.536.536,0,1,0-.37.617A.536.536,0,0,0,274.076,417.432Z" transform="translate(-228.081 -400.163)" fill="#505b6e"/>
  </g>
</svg>
