<svg xmlns="http://www.w3.org/2000/svg" width="19.145" height="19.145" viewBox="0 0 19.145 19.145">
  <path id="Profile_More_Icon" data-name="Profile&amp;More_Icon" d="M16.341,2.8A9.573,9.573,0,0,0,2.8,16.341,9.573,9.573,0,0,0,16.341,2.8ZM4.8,16.542a4.847,4.847,0,0,1,9.547,0,8.432,8.432,0,0,1-9.547,0Zm1.73-8.171a3.044,3.044,0,1,1,3.044,3.044A3.047,3.047,0,0,1,6.528,8.371Zm8.789,7.393a5.978,5.978,0,0,0-3.475-3.9,4.165,4.165,0,1,0-4.539,0,5.977,5.977,0,0,0-3.475,3.9,8.451,8.451,0,1,1,11.49,0Zm0,0" transform="translate(0.001)" fill="#505b6e"/>
</svg>
