<svg xmlns="http://www.w3.org/2000/svg" width="71.389" height="22.42" viewBox="0 0 71.389 22.42">
  <g id="svgviewer-output" transform="translate(-2.477 -8.956)">
    <path id="Path_12064" data-name="Path 12064" d="M118.629,16.873l-4.689,17.9-.011.041h3.652l4.706-17.942Z" transform="translate(-48.42 -3.44)" fill="#292929"/>
    <path id="Path_12065" data-name="Path 12065" d="M13.831,23.622a3.953,3.953,0,0,1-1.761.407c-1.315,0-2.061-.21-2.143-1.273v-.072c0-.042,0-.08,0-.129v-3.1l0-.364V16.912h0v-.928l0-.368V13.51l-3.262.43a4.077,4.077,0,0,0,3.472-3.913V8.956H6.473v5.012l-.207.058v9.282c.121,2.608,1.839,4.158,4.659,4.158a7.463,7.463,0,0,0,2.934-.608l.019-.008V23.594Z" transform="translate(-1.646)" fill="#292929"/>
    <path id="Path_12066" data-name="Path 12066" d="M12.764,15.68,2.477,17.266v2.608l10.286-1.586Z" transform="translate(0 -2.921)" fill="#292929"/>
    <path id="Path_12067" data-name="Path 12067" d="M12.764,22.427,2.477,24.013V26.5l10.286-1.586Z" transform="translate(0 -5.853)" fill="#292929"/>
    <path id="Path_12068" data-name="Path 12068" d="M33.092,21a4.506,4.506,0,0,0-4.906-4.614,4.882,4.882,0,0,0-4.043,1.9A8.615,8.615,0,0,0,22.7,23.542,8.629,8.629,0,0,0,24.143,28.8a4.891,4.891,0,0,0,4.043,1.9,4.516,4.516,0,0,0,4.906-4.638v4.366h3.66V16.695l-3.66.565Zm.191,2.541c0,2.567-1.348,4.225-3.433,4.225-2.148,0-3.433-1.579-3.433-4.225,0-2.661,1.281-4.252,3.431-4.252a3.1,3.1,0,0,1,2.526,1.178,4.916,4.916,0,0,1,.907,3.072Z" transform="translate(-8.785 -3.23)" fill="#292929"/>
    <path id="Path_12069" data-name="Path 12069" d="M59.873,13.554a4.506,4.506,0,0,0-4.907,4.618V9.862l-3.665.566v17.16h3.665V23.22a4.517,4.517,0,0,0,4.907,4.644c3.454,0,5.516-2.674,5.516-7.153S63.327,13.554,59.873,13.554ZM58.209,24.931c-2.086,0-3.433-1.658-3.433-4.225a4.919,4.919,0,0,1,.907-3.073,3.1,3.1,0,0,1,2.526-1.178c2.148,0,3.433,1.591,3.433,4.251S60.358,24.931,58.209,24.931Z" transform="translate(-21.212 -0.394)" fill="#292929"/>
    <path id="Path_12070" data-name="Path 12070" d="M87.275,13.554a4.506,4.506,0,0,0-4.907,4.618V9.862l-3.665.566v17.16h3.665V23.22a4.517,4.517,0,0,0,4.907,4.644c3.454,0,5.516-2.674,5.516-7.153S90.728,13.554,87.275,13.554ZM85.61,24.931c-2.085,0-3.433-1.658-3.433-4.225a4.919,4.919,0,0,1,.907-3.073,3.1,3.1,0,0,1,2.526-1.178c2.148,0,3.433,1.591,3.433,4.251S87.76,24.931,85.61,24.931Z" transform="translate(-33.116 -0.394)" fill="#292929"/>
    <path id="Path_12071" data-name="Path 12071" d="M103.628,16.873h3.914l3.18,13.735h-3.509Z" transform="translate(-43.945 -3.44)" fill="#292929"/>
  </g>
</svg>
