<svg xmlns="http://www.w3.org/2000/svg" width="69.569" height="29.673" viewBox="0 0 69.569 29.673">
  <g id="Tap_Payments" transform="translate(-4.275 -4.275)">
    <g id="Group_4168" data-name="Group 4168" transform="translate(43.804 12.429)">
      <path id="Path_12058" data-name="Path 12058" d="M135.706,838.9h.707v3.062h4.756v.662H136.42v5.95c0,2.543.811,3.867,2.861,3.867a3.1,3.1,0,0,0,1.784-.584l.292.564a3.9,3.9,0,0,1-2.206.688c-2.446,0-3.452-1.492-3.452-4.308v-9.9Z" transform="translate(-135.7 -838.9)" fill="#292929"/>
      <path id="Path_12059" data-name="Path 12059" d="M255.956,883.706a6.124,6.124,0,0,1,3.38-1.006c2.965,0,3.964,1.616,3.964,4.36v6.877h-.688V892.03a4.709,4.709,0,0,1-4.087,2.031,3.108,3.108,0,0,1-3.426-3.16c0-2.206,1.81-3.354,4.185-3.354a5.914,5.914,0,0,1,3.328.908c0-3.062-.123-5.093-3.354-5.093a5.514,5.514,0,0,0-3.082.928Zm6.657,7.611V889.11a5.515,5.515,0,0,0-3.283-.98c-1.713,0-3.5.811-3.5,2.719a2.562,2.562,0,0,0,2.842,2.543A4.554,4.554,0,0,0,262.613,891.316Z" transform="translate(-247.353 -879.858)" fill="#292929"/>
      <path id="Path_12060" data-name="Path 12060" d="M441.8,882.921h.707v1.616a5.839,5.839,0,0,1,4.237-1.836c3.283,0,5.236,2.3,5.236,5.554,0,3.354-2.225,5.9-5.606,5.9a6.39,6.39,0,0,1-3.867-1.1v5.774H441.8Zm.714,2.3v7.1a6.339,6.339,0,0,0,3.841,1.174,4.805,4.805,0,0,0,4.9-5.165c0-2.965-1.687-4.97-4.652-4.97A5.461,5.461,0,0,0,442.514,885.224Z" transform="translate(-421.94 -879.858)" fill="#292929"/>
    </g>
    <g id="Group_4169" data-name="Group 4169" transform="translate(4.275 4.275)">
      <path id="Path_12061" data-name="Path 12061" d="M14.839,0A14.836,14.836,0,1,0,29.673,14.834,14.836,14.836,0,0,0,14.839,0Zm0,27.521A12.687,12.687,0,1,1,27.525,14.834,12.685,12.685,0,0,1,14.839,27.521Z" fill="#292929"/>
      <path id="Path_12062" data-name="Path 12062" d="M106.381,95.6a10.781,10.781,0,1,0,10.781,10.781A10.78,10.78,0,0,0,106.381,95.6Zm0,19.21a8.434,8.434,0,1,1,8.434-8.434A8.433,8.433,0,0,1,106.381,114.81Z" transform="translate(-91.542 -91.542)" fill="#292929"/>
    </g>
  </g>
</svg>
